<?xml version="1.0" encoding="utf-8"?>
<!-- Generator: Adobe Illustrator 22.0.0, SVG Export Plug-In . SVG Version: 6.00 Build 0)  -->
<svg version="1.1"
	 id="svg4209" inkscape:version="0.48.5 r10040" sodipodi:docname="IconoAlergenoPescado-Fish.svg" xmlns:cc="http://creativecommons.org/ns#" xmlns:dc="http://purl.org/dc/elements/1.1/" xmlns:inkscape="http://www.inkscape.org/namespaces/inkscape" xmlns:rdf="http://www.w3.org/1999/02/22-rdf-syntax-ns#" xmlns:sodipodi="http://sodipodi.sourceforge.net/DTD/sodipodi-0.dtd" xmlns:svg="http://www.w3.org/2000/svg"
	 xmlns="http://www.w3.org/2000/svg" xmlns:xlink="http://www.w3.org/1999/xlink" x="0px" y="0px" viewBox="0 0 262.2 372"
	 style="enable-background:new 0 0 262.2 372;" xml:space="preserve">
<style type="text/css">
	.st0{enable-background:new    ;}
	.st1{fill:#28429D;stroke:#28429D;stroke-width:3;stroke-linecap:round;stroke-linejoin:round;}
	.st2{fill:#C3EAD8;stroke:#C3EAD8;stroke-width:5.000000e-02;}
	.st3{fill:#28429D;stroke:#28429D;stroke-width:5.000000e-02;}
</style>
<sodipodi:namedview  bordercolor="#666666" borderopacity="1.0" id="base" inkscape:current-layer="layer1" inkscape:cx="487.44456" inkscape:cy="621.26637" inkscape:document-units="px" inkscape:pageopacity="0.0" inkscape:pageshadow="2" inkscape:window-height="924" inkscape:window-maximized="1" inkscape:window-width="1280" inkscape:window-x="0" inkscape:window-y="28" inkscape:zoom="0.32234025" pagecolor="#ffffff" showgrid="false">
	</sodipodi:namedview>
<g id="layer1" transform="translate(0,-680.31494)" inkscape:groupmode="layer" inkscape:label="Capa 1">
	<g id="g5444" transform="matrix(5.5766335,0,0,5.5766335,-980.45196,-1140.5133)">
		<g class="st0">
			<path d="M189.7,384.9v-4.5h1.3c0.3,0,0.5,0,0.7,0.1c0.2,0.1,0.3,0.2,0.4,0.4c0.1,0.2,0.1,0.4,0.1,0.7c0,0.3,0,0.5-0.1,0.7
				c-0.1,0.2-0.2,0.3-0.4,0.4c-0.2,0.1-0.4,0.1-0.6,0.1h-0.4v2H189.7z M190.5,382.3h0.3c0.1,0,0.3,0,0.3-0.1s0.1-0.1,0.2-0.2
				s0-0.2,0-0.4c0-0.2,0-0.3,0-0.4c0-0.1-0.1-0.2-0.2-0.2c-0.1,0-0.2-0.1-0.4-0.1h-0.3V382.3z"/>
			<path d="M192.6,384.9v-4.5h1.9v0.6h-1.1v1.3h0.8v0.6h-0.8v1.5h1.1v0.6H192.6z"/>
			<path d="M196,385c-0.3,0-0.5-0.1-0.7-0.2c-0.2-0.1-0.3-0.3-0.4-0.5c-0.1-0.2-0.1-0.4-0.2-0.7l0.7-0.1c0,0.2,0,0.3,0.1,0.5
				c0,0.1,0.1,0.2,0.2,0.3c0.1,0.1,0.2,0.1,0.3,0.1c0.1,0,0.2,0,0.3-0.1c0.1-0.1,0.1-0.2,0.1-0.3c0-0.2,0-0.4-0.1-0.5
				c-0.1-0.1-0.2-0.2-0.4-0.4l-0.6-0.5c-0.2-0.1-0.3-0.3-0.4-0.5c-0.1-0.2-0.1-0.4-0.1-0.6c0-0.4,0.1-0.6,0.3-0.8
				c0.2-0.2,0.5-0.3,0.8-0.3c0.2,0,0.4,0,0.5,0.1c0.1,0.1,0.3,0.2,0.3,0.3c0.1,0.1,0.1,0.2,0.2,0.4c0,0.1,0.1,0.3,0.1,0.5l-0.7,0.1
				c0-0.1,0-0.3,0-0.4c0-0.1-0.1-0.2-0.1-0.3c-0.1-0.1-0.1-0.1-0.3-0.1c-0.1,0-0.2,0-0.3,0.1c-0.1,0.1-0.1,0.2-0.1,0.3
				c0,0.2,0,0.3,0.1,0.4c0.1,0.1,0.2,0.2,0.3,0.3l0.6,0.5c0.2,0.2,0.3,0.3,0.5,0.5c0.1,0.2,0.2,0.5,0.2,0.8c0,0.2,0,0.4-0.1,0.6
				c-0.1,0.2-0.2,0.3-0.4,0.4C196.5,384.9,196.3,385,196,385z"/>
			<path d="M198.8,385c-0.3,0-0.6-0.1-0.8-0.2c-0.2-0.1-0.3-0.3-0.4-0.5c-0.1-0.2-0.1-0.5-0.1-0.8v-1.6c0-0.3,0-0.6,0.1-0.8
				c0.1-0.2,0.2-0.4,0.4-0.5c0.2-0.1,0.4-0.2,0.8-0.2c0.3,0,0.5,0.1,0.7,0.2c0.2,0.1,0.3,0.3,0.4,0.4c0.1,0.2,0.1,0.4,0.1,0.7v0.4
				h-0.8v-0.4c0-0.1,0-0.2,0-0.3c0-0.1,0-0.2-0.1-0.2c-0.1-0.1-0.2-0.1-0.3-0.1c-0.1,0-0.2,0-0.3,0.1c-0.1,0.1-0.1,0.2-0.1,0.3
				c0,0.1,0,0.2,0,0.4v1.9c0,0.2,0,0.3,0,0.4s0.1,0.2,0.1,0.2c0.1,0.1,0.2,0.1,0.3,0.1c0.1,0,0.2,0,0.3-0.1c0.1-0.1,0.1-0.1,0.1-0.3
				c0-0.1,0-0.2,0-0.4v-0.4h0.8v0.4c0,0.3,0,0.5-0.1,0.7c-0.1,0.2-0.2,0.4-0.4,0.5C199.4,384.9,199.2,385,198.8,385z"/>
			<path d="M200.4,384.9l0.9-4.5h0.9l0.9,4.5h-0.8l-0.2-1h-0.8l-0.2,1H200.4z M201.4,383.4h0.6l-0.3-1.9L201.4,383.4z"/>
			<path d="M203.5,384.9v-4.5h1.1c0.4,0,0.6,0,0.8,0.1c0.2,0.1,0.3,0.3,0.4,0.5c0.1,0.2,0.1,0.5,0.1,0.8v1.6c0,0.3,0,0.6-0.1,0.8
				c-0.1,0.2-0.2,0.4-0.4,0.5c-0.2,0.1-0.5,0.2-0.8,0.2H203.5z M204.3,384.3h0.2c0.2,0,0.3,0,0.4-0.1c0.1-0.1,0.1-0.2,0.1-0.3
				c0-0.1,0-0.3,0-0.5v-1.7c0-0.2,0-0.3,0-0.4c0-0.1-0.1-0.2-0.2-0.2c-0.1-0.1-0.2-0.1-0.4-0.1h-0.2V384.3z"/>
			<path d="M207.7,385c-0.3,0-0.6-0.1-0.8-0.2c-0.2-0.1-0.3-0.3-0.4-0.5c-0.1-0.2-0.1-0.5-0.1-0.8v-1.7c0-0.3,0-0.6,0.1-0.8
				c0.1-0.2,0.2-0.4,0.4-0.5s0.4-0.2,0.8-0.2c0.3,0,0.6,0.1,0.8,0.2c0.2,0.1,0.3,0.3,0.4,0.5c0.1,0.2,0.1,0.5,0.1,0.8v1.7
				c0,0.3,0,0.6-0.1,0.8c-0.1,0.2-0.2,0.4-0.4,0.5C208.3,384.9,208.1,385,207.7,385z M207.7,384.4c0.1,0,0.2,0,0.3-0.1
				c0.1-0.1,0.1-0.1,0.1-0.2c0-0.1,0-0.2,0-0.3v-2.1c0-0.1,0-0.2,0-0.3c0-0.1-0.1-0.2-0.1-0.2c-0.1-0.1-0.2-0.1-0.3-0.1
				c-0.1,0-0.2,0-0.3,0.1c-0.1,0.1-0.1,0.1-0.1,0.2c0,0.1,0,0.2,0,0.3v2.1c0,0.1,0,0.2,0,0.3c0,0.1,0.1,0.2,0.1,0.2
				C207.5,384.3,207.6,384.4,207.7,384.4z"/>
		</g>
		<g id="g5437">
			
				<path id="path3230-2-8" sodipodi:cx="21.573027" sodipodi:cy="29.287827" sodipodi:rx="18.363815" sodipodi:ry="18.720394" sodipodi:type="arc" class="st1" d="
				M218.4,355.4c0,10.6-8.6,19.1-19.1,19.1s-19.1-8.6-19.1-19.1c0-10.6,8.6-19.1,19.1-19.1S218.4,344.9,218.4,355.4z"/>
			<g id="g4152" transform="translate(44.875963,326.33619)">
				
					<path id="path4134" inkscape:connector-curvature="0" sodipodi:nodetypes="ccccccccccccccccccccccccccccccccccccccccccccccccccccccccccc" class="st2" d="
					M139.8,30.8l1.3-0.6l-1.5-1.2c0.2-0.3,0.4-0.7,0.7-1c0.6-0.7,1-1.4,1.8-2c0.6-0.5,1.2-1,2-1.4c0.6-0.3,1.2-0.5,1.8-0.7
					c0.9-0.2,2-0.5,3.3-0.7c0.5-0.1,1-0.2,1.4-0.5l0.8-1c0.5-0.4,0.9-0.8,1.4-1.1c0.5-0.2,0.8-0.5,1.8-0.6c0.4-0.1,0.7,0,1,0.1
					c0.2,0.1,0.4,0.2,0.4,0.5c0,0.3-0.1,0.6-0.3,0.9l-0.9,1.5c-0.1,0.2-0.2,0.3-0.3,0.6c0.7,0.2,1.5,0.4,2.2,0.8
					c0.7,0.2,1.3,0.5,1.8,0.8c0.7,0.3,1.1,0.5,1.6,0.8c0.8,0.5,1.4,0.9,2.1,1.4l0.8,0.7c0.4-0.5,0.6-0.9,1.4-1.6
					c0.5-0.4,1-0.7,1.8-1c0.6-0.1,1.2-0.3,2-0.3c0.3,0,0.9,0,1,0.3l-0.9,0.7c-0.4,0.3-0.7,0.7-1.1,1.1c-0.4,0.6-0.6,1.1-0.8,1.4
					c-0.1,0.4-0.2,0.8-0.2,1.2c0,0.4,0.3,1,0.5,1.5l1.1,1.3l1.3,1.1c-0.2,0.4-0.2,0.3-0.8,0.6c-0.5,0.1-0.9,0.1-1.4,0.1l-1.1-0.4
					c-0.4-0.3-1-0.6-1.2-0.9l-1.1-1.1l-0.6-0.8c-0.2,0.4-0.5,0.7-0.9,1c-0.5,0.4-1,0.7-1.5,1.1l-1.2,0.6l-1.3,0.6
					c-1,0.4-2,0.7-3,1.1l-1.3,0.4c0,0.3,0.1,0.5,0.3,0.6l0.9,0.7l0.7,0.6c-0.2,0.2-0.6,0.3-0.9,0.4c-0.3,0.1-0.7,0-1,0
					c-0.6-0.2-1.1-0.4-1.4-0.7l-0.6-0.6l-0.6-0.7c-0.4-0.2-0.7-0.2-1.1-0.3l-2.3-0.3c-1.1-0.1-2.2-0.2-3.3-0.6
					c-0.9-0.3-1.7-0.7-2.4-1.3c-0.6-0.5-1.2-1.1-1.6-1.5L139.8,30.8z"/>
				
					<path id="path4140" sodipodi:cx="148.47491" sodipodi:cy="30.271761" sodipodi:rx="0.83706784" sodipodi:ry="0.83706784" sodipodi:type="arc" class="st3" d="
					M147.1,27.8c0,0.7-0.5,1.2-1.2,1.2s-1.2-0.5-1.2-1.2c0-0.7,0.5-1.2,1.2-1.2C146.6,26.6,147.1,27.1,147.1,27.8z"/>
				<path id="path4142" inkscape:connector-curvature="0" sodipodi:nodetypes="cccccccccccccccccccccccccccc" class="st3" d="
					M148.2,34.7l0.7-0.6l0.8-1l0.6-1.2c0.2-0.4,0.3-0.8,0.4-1.2l0.1-1c0-0.4,0-0.9-0.1-1.4c-0.1-0.5-0.2-1-0.4-1.6l-0.6-1.2
					l-0.7-1.1l-0.2-0.3l0.5,0.4l0.8,0.8l0.4,0.5l0.6,1l0.3,0.8l0.2,0.6l0.1,0.6l0,0.8l-0.1,0.8l-0.2,0.8l-0.2,0.7l-0.4,0.7l-0.3,0.5
					l-0.5,0.5l-0.7,0.6l-0.7,0.5L148.2,34.7z"/>
			</g>
		</g>
	</g>
</g>
</svg>
