<?xml version="1.0" encoding="utf-8"?>
<!-- Generator: Adobe Illustrator 22.0.0, SVG Export Plug-In . SVG Version: 6.00 Build 0)  -->
<svg version="1.1"
	 id="svg4209" inkscape:version="0.48.5 r10040" sodipodi:docname="IconoAlergenoLacteos.svg" xmlns:cc="http://creativecommons.org/ns#" xmlns:dc="http://purl.org/dc/elements/1.1/" xmlns:inkscape="http://www.inkscape.org/namespaces/inkscape" xmlns:rdf="http://www.w3.org/1999/02/22-rdf-syntax-ns#" xmlns:sodipodi="http://sodipodi.sourceforge.net/DTD/sodipodi-0.dtd" xmlns:svg="http://www.w3.org/2000/svg"
	 xmlns="http://www.w3.org/2000/svg" xmlns:xlink="http://www.w3.org/1999/xlink" x="0px" y="0px" viewBox="0 0 262.2 372"
	 style="enable-background:new 0 0 262.2 372;" xml:space="preserve">
<style type="text/css">
	.st0{enable-background:new    ;}
	.st1{fill:#6D351E;stroke:#6D351E;stroke-width:0.4;stroke-linecap:round;stroke-linejoin:round;}
	.st2{fill:#FFFFFF;stroke:#FFFFFF;stroke-width:5.000000e-02;stroke-linecap:round;stroke-linejoin:round;}
	.st3{fill:#6D351E;stroke:#6D351E;stroke-width:5.000000e-02;stroke-linejoin:round;}
	.st4{fill:#6D351E;stroke:#6D351E;stroke-width:5.000000e-02;stroke-linecap:round;stroke-linejoin:round;}
</style>
<sodipodi:namedview  bordercolor="#666666" borderopacity="1.0" id="base" inkscape:current-layer="layer1" inkscape:cx="1166.5898" inkscape:cy="885.81209" inkscape:document-units="px" inkscape:pageopacity="0.0" inkscape:pageshadow="2" inkscape:window-height="924" inkscape:window-maximized="1" inkscape:window-width="1280" inkscape:window-x="0" inkscape:window-y="28" inkscape:zoom="0.20031052" pagecolor="#ffffff" showgrid="false">
	</sodipodi:namedview>
<g id="layer1" transform="translate(0,-680.31494)" inkscape:groupmode="layer" inkscape:label="Capa 1">
	<g id="g4979" transform="matrix(5.5766334,0,0,5.5766334,-1073.8786,-1027.3502)">
		<g class="st0">
			<path d="M207.1,364.3v-4.5h0.8v3.9h1.1v0.6H207.1z"/>
			<path d="M209.2,364.3l0.9-4.5h0.9l0.9,4.5h-0.8l-0.2-1h-0.8l-0.2,1H209.2z M210.2,362.8h0.6l-0.3-1.9L210.2,362.8z"/>
			<path d="M213.5,364.4c-0.3,0-0.6-0.1-0.8-0.2c-0.2-0.1-0.3-0.3-0.4-0.5c-0.1-0.2-0.1-0.5-0.1-0.8v-1.6c0-0.3,0-0.6,0.1-0.8
				c0.1-0.2,0.2-0.4,0.4-0.5c0.2-0.1,0.4-0.2,0.8-0.2c0.3,0,0.5,0.1,0.7,0.2c0.2,0.1,0.3,0.3,0.4,0.4c0.1,0.2,0.1,0.4,0.1,0.7v0.4
				h-0.8v-0.4c0-0.1,0-0.2,0-0.3c0-0.1,0-0.2-0.1-0.2c-0.1-0.1-0.2-0.1-0.3-0.1c-0.1,0-0.2,0-0.3,0.1c-0.1,0.1-0.1,0.2-0.1,0.3
				c0,0.1,0,0.2,0,0.4v1.9c0,0.2,0,0.3,0,0.4c0,0.1,0.1,0.2,0.1,0.2c0.1,0.1,0.2,0.1,0.3,0.1c0.1,0,0.2,0,0.3-0.1
				c0.1-0.1,0.1-0.1,0.1-0.3c0-0.1,0-0.2,0-0.4v-0.4h0.8v0.4c0,0.3,0,0.5-0.1,0.7c-0.1,0.2-0.2,0.4-0.4,0.5
				C214,364.3,213.8,364.4,213.5,364.4z"/>
			<path d="M215.7,364.3v-3.9H215v-0.6h2.2v0.6h-0.7v3.9H215.7z"/>
			<path d="M217.6,364.3v-4.5h1.9v0.6h-1.1v1.3h0.8v0.6h-0.8v1.5h1.1v0.6H217.6z"/>
			<path d="M221.2,364.4c-0.3,0-0.6-0.1-0.8-0.2c-0.2-0.1-0.3-0.3-0.4-0.5c-0.1-0.2-0.1-0.5-0.1-0.8v-1.7c0-0.3,0-0.6,0.1-0.8
				c0.1-0.2,0.2-0.4,0.4-0.5s0.4-0.2,0.8-0.2c0.3,0,0.6,0.1,0.8,0.2c0.2,0.1,0.3,0.3,0.4,0.5c0.1,0.2,0.1,0.5,0.1,0.8v1.7
				c0,0.3,0,0.6-0.1,0.8c-0.1,0.2-0.2,0.4-0.4,0.5C221.7,364.3,221.5,364.4,221.2,364.4z M221.2,363.8c0.1,0,0.2,0,0.3-0.1
				c0.1-0.1,0.1-0.1,0.1-0.2c0-0.1,0-0.2,0-0.3v-2.1c0-0.1,0-0.2,0-0.3c0-0.1-0.1-0.2-0.1-0.2c-0.1-0.1-0.2-0.1-0.3-0.1
				c-0.1,0-0.2,0-0.3,0.1c-0.1,0.1-0.1,0.1-0.1,0.2c0,0.1,0,0.2,0,0.3v2.1c0,0.1,0,0.2,0,0.3c0,0.1,0.1,0.2,0.1,0.2
				C220.9,363.7,221,363.8,221.2,363.8z"/>
			<path d="M224.2,364.4c-0.3,0-0.5-0.1-0.7-0.2c-0.2-0.1-0.3-0.3-0.4-0.5c-0.1-0.2-0.1-0.4-0.2-0.7l0.7-0.1c0,0.2,0,0.3,0.1,0.5
				c0,0.1,0.1,0.2,0.2,0.3c0.1,0.1,0.2,0.1,0.3,0.1c0.1,0,0.2,0,0.3-0.1s0.1-0.2,0.1-0.3c0-0.2,0-0.4-0.1-0.5
				c-0.1-0.1-0.2-0.2-0.4-0.4l-0.6-0.5c-0.2-0.1-0.3-0.3-0.4-0.5c-0.1-0.2-0.1-0.4-0.1-0.6c0-0.4,0.1-0.6,0.3-0.8
				c0.2-0.2,0.5-0.3,0.8-0.3c0.2,0,0.4,0,0.5,0.1c0.1,0.1,0.3,0.2,0.3,0.3c0.1,0.1,0.1,0.2,0.2,0.4c0,0.1,0.1,0.3,0.1,0.5l-0.7,0.1
				c0-0.1,0-0.3,0-0.4c0-0.1-0.1-0.2-0.1-0.3c-0.1-0.1-0.1-0.1-0.3-0.1c-0.1,0-0.2,0-0.3,0.1c-0.1,0.1-0.1,0.2-0.1,0.3
				c0,0.2,0,0.3,0.1,0.4c0.1,0.1,0.2,0.2,0.3,0.3l0.6,0.5c0.2,0.2,0.3,0.3,0.5,0.5c0.1,0.2,0.2,0.5,0.2,0.8c0,0.2,0,0.4-0.1,0.6
				c-0.1,0.2-0.2,0.3-0.4,0.4C224.6,364.3,224.4,364.4,224.2,364.4z"/>
		</g>
		<g id="g4972">
			
				<path id="path3230-0-5" sodipodi:cx="21.573027" sodipodi:cy="29.287827" sodipodi:rx="18.363815" sodipodi:ry="18.720394" sodipodi:type="arc" class="st1" d="
				M236.5,335.4c0,11.3-9.1,20.4-20.4,20.4s-20.4-9.1-20.4-20.4c0-11.3,9.1-20.4,20.4-20.4S236.5,324.1,236.5,335.4z"/>
			<g id="g4264" transform="translate(-72.470092,306.21785)">
				<path id="path4240" inkscape:connector-curvature="0" class="st2" d="M290.7,17.3l2.1-0.7l1.6-0.4l1,0l0.8,0.2l0.6,0.6l0.1,0.7
					l-0.1,0.5l-0.5,0.4l-0.9,0.5l-0.7,0.4l-0.4,0.5l-0.2,1.1l-0.2,0.9l0.2,1.3l0.7,0.9l0.9,1.3l1,2.2l0.4,1.4l0.4,2.5l0.1,1.8
					l-0.1,1.7l-0.3,1.9l-0.6,1.3l-0.7,1.1l-0.8,1.2l-0.7,0.7l-0.9,0.5l-1.6,0.2l-4.3-0.1l-1.4-0.1l-0.7-0.2l-0.5-0.3l-0.7-0.8
					l-1.5-2.2l-0.6-1.6l-0.4-1.4l-0.1-1.4l0-0.6l-0.5-0.7l-0.7-1.2l-0.6-1.3l-0.6-1.9l-0.2-1.1l0.2-1.6l0.3-1.5l0.6-1.2l1.2-1.3
					l1.2-0.7l1.3-0.4l-0.5-1.1l-0.2-0.8l0.1-0.5l0.7-0.5l1.4-0.4l1.5-0.2h1.1h1.1l0.7,0.1l-0.1,0.1l-0.6,0.2h-0.8l-0.9,0.1l-1.3,0.1
					l-1,0.3l-0.6,0.3l0.2,0.3l0.6,0.2l0.9,0.1l0.4,0l0.9-0.3l1.5-0.6l1.1-0.5L290.7,17.3z"/>
				<path id="path4253" inkscape:connector-curvature="0" class="st3" d="M282.1,31.2l0.2-1.5l0.5-1.7l0.6-1.5l0.5-1l0.5-0.7
					l0.1-0.2l0.2-0.6l0-1l-0.1-0.7l-0.1-0.2l-0.2-0.1l-0.2,0.1l-0.9,0.5l-0.6,0.5l-0.9,0.9l-0.5,0.8l-0.3,1l-0.1,1l0.1,1l0.2,1
					l0.3,0.9l0.3,0.7L282.1,31.2z"/>
				<path id="path4255" inkscape:connector-curvature="0" class="st4" d="M286.1,20.8l0.4-0.1l0.5,0l0.3,0.1l0.2,0.3l0.1,0.5v1
					l0,0.9l-0.1,0.9l-0.3,0.7l-0.2,0.3l-0.2,0.5l-0.3,0.5l-0.5,0.8l-0.3,0.7L285,29l-0.4,1.1l-0.2,0.6l-0.2,0.5l-0.2,0.1l-0.2,0
					l-0.1-0.1l-0.1-0.3l0.3-1.5l0.4-1.1l0.5-1.4l0.5-1l0.5-0.9l0.3-0.7l0.1-0.6l-0.2-1.3l-0.1-0.9l0-0.4L286.1,20.8z"/>
			</g>
		</g>
	</g>
</g>
</svg>
