<?xml version="1.0" encoding="utf-8"?>
<!-- Generator: Adobe Illustrator 22.0.0, SVG Export Plug-In . SVG Version: 6.00 Build 0)  -->
<svg version="1.1"
	 id="svg4209" inkscape:version="0.48.5 r10040" sodipodi:docname="IconoAlergenoGranosSesamo.svg" xmlns:cc="http://creativecommons.org/ns#" xmlns:dc="http://purl.org/dc/elements/1.1/" xmlns:inkscape="http://www.inkscape.org/namespaces/inkscape" xmlns:rdf="http://www.w3.org/1999/02/22-rdf-syntax-ns#" xmlns:sodipodi="http://sodipodi.sourceforge.net/DTD/sodipodi-0.dtd" xmlns:svg="http://www.w3.org/2000/svg"
	 xmlns="http://www.w3.org/2000/svg" xmlns:xlink="http://www.w3.org/1999/xlink" x="0px" y="0px" viewBox="0 0 262.2 372"
	 style="enable-background:new 0 0 262.2 372;" xml:space="preserve">
<style type="text/css">
	.st0{enable-background:new    ;}
	.st1{fill:#9A8E6C;stroke:#9A8E6C;stroke-width:3;stroke-linecap:round;stroke-linejoin:round;}
	.st2{fill:#FFFFFF;stroke:#FFFFFF;stroke-width:5.000000e-02;stroke-linecap:round;stroke-linejoin:round;}
	.st3{fill:#FFFFFF;stroke:#FFFFFF;stroke-width:4.238347e-02;stroke-linecap:round;stroke-linejoin:round;}
	.st4{fill:#FFFFFF;stroke:#FFFFFF;stroke-width:3.568314e-02;stroke-linecap:round;stroke-linejoin:round;}
	.st5{fill:#FFFFFF;stroke:#FFFFFF;stroke-width:2.677974e-02;stroke-linecap:round;stroke-linejoin:round;}
	.st6{fill:#FFFFFF;stroke:#FFFFFF;stroke-width:3.993879e-02;stroke-linecap:round;stroke-linejoin:round;}
</style>
<sodipodi:namedview  bordercolor="#666666" borderopacity="1.0" id="base" inkscape:current-layer="layer1" inkscape:cx="430.45687" inkscape:cy="399.3023" inkscape:document-units="px" inkscape:pageopacity="0.0" inkscape:pageshadow="2" inkscape:window-height="924" inkscape:window-maximized="1" inkscape:window-width="1280" inkscape:window-x="0" inkscape:window-y="28" inkscape:zoom="0.56656371" pagecolor="#ffffff" showgrid="false">
	</sodipodi:namedview>
<g id="layer1" transform="translate(0,-680.31494)" inkscape:groupmode="layer" inkscape:label="Capa 1">
	<g id="g3161" transform="matrix(5.5766335,0,0,5.5766335,-1112.9951,-1035.2445)">
		<g class="st0">
			<path d="M215.7,363.2c-0.3,0-0.5-0.1-0.7-0.2c-0.2-0.1-0.3-0.3-0.4-0.5c-0.1-0.2-0.1-0.5-0.1-0.8v-1.5c0-0.3,0-0.6,0.1-0.8
				c0.1-0.2,0.2-0.4,0.4-0.5c0.2-0.1,0.4-0.2,0.8-0.2c0.3,0,0.5,0.1,0.7,0.2c0.2,0.1,0.3,0.3,0.4,0.4c0.1,0.2,0.1,0.4,0.1,0.7v0.2
				h-0.8v-0.3c0-0.1,0-0.3,0-0.4c0-0.1-0.1-0.2-0.1-0.2c-0.1-0.1-0.2-0.1-0.3-0.1c-0.1,0-0.2,0-0.3,0.1c-0.1,0.1-0.1,0.2-0.1,0.3
				c0,0.1,0,0.2,0,0.4v1.9c0,0.2,0,0.3,0,0.4c0,0.1,0.1,0.2,0.1,0.3c0.1,0.1,0.2,0.1,0.3,0.1c0.1,0,0.2,0,0.3-0.1
				c0.1-0.1,0.1-0.2,0.1-0.3c0-0.1,0-0.3,0-0.4v-0.4h-0.5v-0.5h1.2v2.3h-0.5l-0.1-0.4c-0.1,0.1-0.1,0.3-0.3,0.4
				C216,363.1,215.9,363.2,215.7,363.2z"/>
			<path d="M217.6,363.1v-4.5h1.1c0.3,0,0.6,0,0.8,0.1c0.2,0.1,0.4,0.2,0.5,0.4c0.1,0.2,0.2,0.4,0.2,0.7c0,0.2,0,0.3,0,0.5
				c0,0.1-0.1,0.3-0.2,0.4c-0.1,0.1-0.2,0.2-0.3,0.2l0.6,2.2h-0.8l-0.5-2h-0.4v2H217.6z M218.4,360.5h0.3c0.2,0,0.3,0,0.4-0.1
				c0.1,0,0.2-0.1,0.2-0.2c0-0.1,0.1-0.2,0.1-0.4c0-0.2,0-0.4-0.1-0.5c-0.1-0.1-0.2-0.2-0.5-0.2h-0.3V360.5z"/>
			<path d="M220.5,363.1l0.9-4.5h0.9l0.9,4.5h-0.8l-0.2-1h-0.8l-0.2,1H220.5z M221.5,361.5h0.6l-0.3-1.9L221.5,361.5z"/>
			<path d="M223.5,363.1v-4.5h0.6l1.1,2.5v-2.5h0.7v4.5h-0.5l-1.1-2.7v2.7H223.5z"/>
			<path d="M227.8,363.2c-0.3,0-0.6-0.1-0.8-0.2c-0.2-0.1-0.3-0.3-0.4-0.5c-0.1-0.2-0.1-0.5-0.1-0.8V360c0-0.3,0-0.6,0.1-0.8
				c0.1-0.2,0.2-0.4,0.4-0.5c0.2-0.1,0.4-0.2,0.8-0.2c0.3,0,0.6,0.1,0.8,0.2s0.3,0.3,0.4,0.5c0.1,0.2,0.1,0.5,0.1,0.8v1.7
				c0,0.3,0,0.6-0.1,0.8c-0.1,0.2-0.2,0.4-0.4,0.5S228.1,363.2,227.8,363.2z M227.8,362.6c0.1,0,0.2,0,0.3-0.1
				c0.1-0.1,0.1-0.1,0.1-0.2c0-0.1,0-0.2,0-0.3v-2.1c0-0.1,0-0.2,0-0.3s-0.1-0.2-0.1-0.2c-0.1-0.1-0.2-0.1-0.3-0.1
				c-0.1,0-0.2,0-0.3,0.1c-0.1,0.1-0.1,0.1-0.1,0.2s0,0.2,0,0.3v2.1c0,0.1,0,0.2,0,0.3c0,0.1,0.1,0.2,0.1,0.2
				C227.5,362.5,227.6,362.6,227.8,362.6z"/>
			<path d="M230.8,363.2c-0.3,0-0.5-0.1-0.7-0.2c-0.2-0.1-0.3-0.3-0.4-0.5c-0.1-0.2-0.1-0.4-0.2-0.7l0.7-0.1c0,0.2,0,0.3,0.1,0.5
				c0,0.1,0.1,0.2,0.2,0.3c0.1,0.1,0.2,0.1,0.3,0.1c0.1,0,0.2,0,0.3-0.1c0.1-0.1,0.1-0.2,0.1-0.3c0-0.2,0-0.4-0.1-0.5
				c-0.1-0.1-0.2-0.2-0.4-0.4l-0.6-0.5c-0.2-0.1-0.3-0.3-0.4-0.5c-0.1-0.2-0.1-0.4-0.1-0.6c0-0.4,0.1-0.6,0.3-0.8
				c0.2-0.2,0.5-0.3,0.8-0.3c0.2,0,0.4,0,0.5,0.1c0.1,0.1,0.3,0.2,0.3,0.3c0.1,0.1,0.1,0.2,0.2,0.4c0,0.1,0.1,0.3,0.1,0.5l-0.7,0.1
				c0-0.1,0-0.3,0-0.4c0-0.1-0.1-0.2-0.1-0.3c-0.1-0.1-0.1-0.1-0.3-0.1c-0.1,0-0.2,0-0.3,0.1c-0.1,0.1-0.1,0.2-0.1,0.3
				c0,0.2,0,0.3,0.1,0.4c0.1,0.1,0.2,0.2,0.3,0.3l0.6,0.5c0.2,0.2,0.3,0.3,0.5,0.5c0.1,0.2,0.2,0.5,0.2,0.8c0,0.2,0,0.4-0.1,0.6
				c-0.1,0.2-0.2,0.3-0.4,0.4C231.2,363.1,231,363.2,230.8,363.2z"/>
		</g>
		<g class="st0">
			<path d="M211.3,370v-4.5h1.1c0.4,0,0.6,0,0.8,0.1c0.2,0.1,0.3,0.3,0.4,0.5c0.1,0.2,0.1,0.5,0.1,0.8v1.6c0,0.3,0,0.6-0.1,0.8
				c-0.1,0.2-0.2,0.4-0.4,0.5c-0.2,0.1-0.5,0.2-0.8,0.2H211.3z M212.1,369.4h0.2c0.2,0,0.3,0,0.4-0.1c0.1-0.1,0.1-0.2,0.1-0.3
				c0-0.1,0-0.3,0-0.5v-1.7c0-0.2,0-0.3,0-0.4c0-0.1-0.1-0.2-0.2-0.2c-0.1-0.1-0.2-0.1-0.4-0.1h-0.2V369.4z"/>
			<path d="M214.4,370v-4.5h1.9v0.6h-1.1v1.3h0.8v0.6h-0.8v1.5h1.1v0.6H214.4z"/>
			<path d="M219.2,370c-0.3,0-0.5-0.1-0.7-0.2c-0.2-0.1-0.3-0.3-0.4-0.5c-0.1-0.2-0.1-0.4-0.2-0.7l0.7-0.1c0,0.2,0,0.3,0.1,0.5
				c0,0.1,0.1,0.2,0.2,0.3c0.1,0.1,0.2,0.1,0.3,0.1c0.1,0,0.2,0,0.3-0.1c0.1-0.1,0.1-0.2,0.1-0.3c0-0.2,0-0.4-0.1-0.5
				s-0.2-0.2-0.4-0.4l-0.6-0.5c-0.2-0.1-0.3-0.3-0.4-0.5c-0.1-0.2-0.1-0.4-0.1-0.6c0-0.4,0.1-0.6,0.3-0.8c0.2-0.2,0.5-0.3,0.8-0.3
				c0.2,0,0.4,0,0.5,0.1c0.1,0.1,0.3,0.2,0.3,0.3c0.1,0.1,0.1,0.2,0.2,0.4c0,0.1,0.1,0.3,0.1,0.5l-0.7,0.1c0-0.1,0-0.3,0-0.4
				c0-0.1-0.1-0.2-0.1-0.3c-0.1-0.1-0.1-0.1-0.3-0.1c-0.1,0-0.2,0-0.3,0.1c-0.1,0.1-0.1,0.2-0.1,0.3c0,0.2,0,0.3,0.1,0.4
				c0.1,0.1,0.2,0.2,0.3,0.3l0.6,0.5c0.2,0.2,0.3,0.3,0.5,0.5c0.1,0.2,0.2,0.5,0.2,0.8c0,0.2,0,0.4-0.1,0.6
				c-0.1,0.2-0.2,0.3-0.4,0.4C219.6,370,219.4,370,219.2,370z"/>
			<path d="M220.7,370v-4.5h1.9v0.6h-1.1v1.3h0.8v0.6h-0.8v1.5h1.1v0.6H220.7z M221.4,365.2l0.3-1.1h0.8l-0.7,1.1H221.4z"/>
			<path d="M224.2,370c-0.3,0-0.5-0.1-0.7-0.2c-0.2-0.1-0.3-0.3-0.4-0.5c-0.1-0.2-0.1-0.4-0.2-0.7l0.7-0.1c0,0.2,0,0.3,0.1,0.5
				c0,0.1,0.1,0.2,0.2,0.3c0.1,0.1,0.2,0.1,0.3,0.1c0.1,0,0.2,0,0.3-0.1c0.1-0.1,0.1-0.2,0.1-0.3c0-0.2,0-0.4-0.1-0.5
				c-0.1-0.1-0.2-0.2-0.4-0.4l-0.6-0.5c-0.2-0.1-0.3-0.3-0.4-0.5c-0.1-0.2-0.1-0.4-0.1-0.6c0-0.4,0.1-0.6,0.3-0.8
				c0.2-0.2,0.5-0.3,0.8-0.3c0.2,0,0.4,0,0.5,0.1c0.1,0.1,0.3,0.2,0.3,0.3c0.1,0.1,0.1,0.2,0.2,0.4c0,0.1,0.1,0.3,0.1,0.5l-0.7,0.1
				c0-0.1,0-0.3,0-0.4c0-0.1-0.1-0.2-0.1-0.3c-0.1-0.1-0.1-0.1-0.3-0.1c-0.1,0-0.2,0-0.3,0.1c-0.1,0.1-0.1,0.2-0.1,0.3
				c0,0.2,0,0.3,0.1,0.4c0.1,0.1,0.2,0.2,0.3,0.3l0.6,0.5c0.2,0.2,0.3,0.3,0.5,0.5c0.1,0.2,0.2,0.5,0.2,0.8c0,0.2,0,0.4-0.1,0.6
				c-0.1,0.2-0.2,0.3-0.4,0.4C224.6,370,224.4,370,224.2,370z"/>
			<path d="M225.5,370l0.9-4.5h0.9l0.9,4.5h-0.8l-0.2-1h-0.8l-0.2,1H225.5z M226.6,368.4h0.6l-0.3-1.9L226.6,368.4z"/>
			<path d="M228.6,370l0.1-4.5h0.8l0.6,3.1l0.7-3.1h0.8l0.1,4.5h-0.6l-0.1-3.1l-0.6,3.1h-0.5l-0.6-3.1l-0.1,3.1H228.6z"/>
			<path d="M233.6,370c-0.3,0-0.6-0.1-0.8-0.2c-0.2-0.1-0.3-0.3-0.4-0.5s-0.1-0.5-0.1-0.8v-1.7c0-0.3,0-0.6,0.1-0.8s0.2-0.4,0.4-0.5
				s0.4-0.2,0.8-0.2c0.3,0,0.6,0.1,0.8,0.2c0.2,0.1,0.3,0.3,0.4,0.5c0.1,0.2,0.1,0.5,0.1,0.8v1.7c0,0.3,0,0.6-0.1,0.8
				c-0.1,0.2-0.2,0.4-0.4,0.5C234.2,370,233.9,370,233.6,370z M233.6,369.4c0.1,0,0.2,0,0.3-0.1c0.1-0.1,0.1-0.1,0.1-0.2
				s0-0.2,0-0.3v-2.1c0-0.1,0-0.2,0-0.3s-0.1-0.2-0.1-0.2c-0.1-0.1-0.2-0.1-0.3-0.1c-0.1,0-0.2,0-0.3,0.1c-0.1,0.1-0.1,0.1-0.1,0.2
				s0,0.2,0,0.3v2.1c0,0.1,0,0.2,0,0.3c0,0.1,0.1,0.2,0.1,0.2C233.4,369.4,233.5,369.4,233.6,369.4z"/>
		</g>
		<g id="g3152">
			
				<path id="path3230-2-6" sodipodi:cx="21.573027" sodipodi:cy="29.287827" sodipodi:rx="18.363815" sodipodi:ry="18.720394" sodipodi:type="arc" class="st1" d="
				M242.2,333.6c0,10.6-8.6,19.1-19.1,19.1s-19.1-8.6-19.1-19.1c0-10.6,8.6-19.1,19.1-19.1S242.2,323.1,242.2,333.6z"/>
			<g id="g3141" transform="translate(1.8080426,0)">
				
					<path id="path4248" inkscape:connector-curvature="0" sodipodi:nodetypes="ccccccccccccccccccccccccccccccccccc" class="st2" d="
					M224.1,331.4l0.3-0.4l0.5-0.5l0.7-0.5l1.1-0.8l0.9-0.6l0.8-0.5l0.8-0.5l1.1-0.5l1.2-0.4l0.6-0.1l0.4,0l0.2,0.1
					c-1.8,2-3.6,4-5.6,5.9c0.1,0.1,0,0.4,0.3,0.3c1.9-1.9,3.7-3.9,5.5-5.9l0,0.5c0,0.3,0,0.6-0.1,1l-0.2,1.3l-0.5,1.2l-1.2,2.5
					l-0.7,1.2l-0.5,0.7l-0.5,0.6l-0.7,0.6l-0.8,0.6l-1.2,0.4c-0.4,0.1-0.8,0.2-1.2,0.1l-0.9-0.3l-0.7-0.4c-0.3-0.3-0.5-0.7-0.8-1
					c-0.2-0.5-0.3-0.9-0.3-1.2l0.1-1.1c0.2-0.6,0.6-1.4,0.8-1.7L224.1,331.4z"/>
				
					<path id="path4248-0" inkscape:connector-curvature="0" sodipodi:nodetypes="ccccccccccccccccccccccccccccccccccc" class="st3" d="
					M217.1,333.6l-0.2,0.3l-0.4,0.4l-0.6,0.4l-0.9,0.7l-0.7,0.5l-0.7,0.4l-0.7,0.4l-0.9,0.4l-1,0.3l-0.5,0.1l-0.3,0l-0.2-0.1
					c1.5-1.7,3.1-3.3,4.8-5c-0.1-0.1,0-0.4-0.3-0.3c-1.6,1.6-3.2,3.3-4.7,5l0-0.5c0-0.3,0.1-0.5,0.1-0.8l0.2-1.1l0.4-1l1-2.1l0.6-1
					l0.4-0.6l0.4-0.5l0.6-0.5l0.7-0.5l1-0.3c0.3-0.1,0.7-0.2,1-0.1l0.8,0.3l0.6,0.4c0.2,0.3,0.4,0.6,0.7,0.9
					c0.2,0.4,0.2,0.8,0.2,1.1l-0.1,1c-0.2,0.5-0.5,1.2-0.7,1.4L217.1,333.6z"/>
				
					<path id="path4248-5" inkscape:connector-curvature="0" sodipodi:nodetypes="ccccccccccccccccccccccccccccccccccc" class="st4" d="
					M220,325l-0.1-0.3l-0.1-0.5l-0.1-0.6l-0.2-1l-0.1-0.8l-0.1-0.7l0-0.7l0-0.9l0.1-0.9l0.1-0.4l0.1-0.3l0.1-0.1
					c0.7,1.9,1.3,3.8,1.9,5.8c0.1,0,0.2,0.2,0.3-0.1c-0.6-2-1.2-3.9-1.9-5.8l0.3,0.1c0.2,0.1,0.4,0.2,0.6,0.4l0.7,0.6l0.6,0.7
					l1.2,1.7l0.5,0.9l0.3,0.6l0.2,0.5l0.2,0.7l0.1,0.8l-0.1,0.9c0,0.3-0.1,0.6-0.3,0.9l-0.4,0.5l-0.4,0.4c-0.3,0.1-0.5,0.2-0.8,0.2
					c-0.3,0-0.6-0.1-0.8-0.2l-0.6-0.4c-0.3-0.3-0.6-0.8-0.8-1.1L220,325z"/>
				
					<path id="path4248-1" inkscape:connector-curvature="0" sodipodi:nodetypes="ccccccccccccccccccccccccccccccccccc" class="st5" d="
					M223.2,316.7l-0.2-0.1l-0.3-0.2l-0.3-0.3l-0.5-0.5l-0.4-0.4l-0.3-0.4l-0.3-0.4l-0.4-0.6l-0.3-0.6l-0.1-0.3l0-0.2l0-0.1
					c1.2,0.8,2.3,1.6,3.5,2.5c0.1-0.1,0.2,0,0.1-0.2c-1.1-0.8-2.3-1.7-3.5-2.4l0.2-0.1c0.1,0,0.3-0.1,0.5-0.1l0.6,0l0.6,0.1l1.3,0.3
					l0.6,0.2l0.4,0.2l0.3,0.2l0.4,0.3l0.4,0.4l0.4,0.6c0.1,0.2,0.2,0.4,0.2,0.7l0,0.6l-0.1,0.5c-0.1,0.2-0.2,0.4-0.3,0.6
					c-0.2,0.2-0.4,0.3-0.5,0.3l-0.5,0.1c-0.3,0-0.7-0.1-0.9-0.2L223.2,316.7z"/>
				
					<path id="path4248-19" inkscape:connector-curvature="0" sodipodi:nodetypes="ccccccccccccccccccccccccccccccccccc" class="st6" d="
					M219.9,346.6l-0.2-0.3l-0.2-0.5l-0.2-0.6l-0.4-1l-0.2-0.8l-0.2-0.7l-0.2-0.7l-0.1-0.9l0-0.9l0.1-0.4l0.1-0.3l0.2-0.1
					c1.1,1.8,2.2,3.6,3.2,5.5c0.1,0,0.3,0.1,0.3-0.2c-1-1.8-2.1-3.6-3.2-5.4l0.4,0.1c0.2,0.1,0.5,0.2,0.8,0.3l0.9,0.5l0.8,0.6
					l1.7,1.5l0.8,0.8l0.5,0.5l0.3,0.5l0.3,0.6l0.3,0.7l0,0.9c0,0.3,0,0.6-0.2,0.9l-0.5,0.6l-0.5,0.4c-0.3,0.1-0.7,0.2-1,0.3
					c-0.4,0-0.8,0-1.1-0.1l-0.9-0.3c-0.4-0.3-0.9-0.7-1.1-1L219.9,346.6z"/>
			</g>
		</g>
	</g>
</g>
</svg>
