<?xml version="1.0" encoding="utf-8"?>
<!-- Generator: Adobe Illustrator 22.0.0, SVG Export Plug-In . SVG Version: 6.00 Build 0)  -->
<svg version="1.1"
	 id="svg4209" inkscape:version="0.48.5 r10040" sodipodi:docname="IconoAlergenoFrutosCascaraPeelFruits.svg" xmlns:cc="http://creativecommons.org/ns#" xmlns:dc="http://purl.org/dc/elements/1.1/" xmlns:inkscape="http://www.inkscape.org/namespaces/inkscape" xmlns:rdf="http://www.w3.org/1999/02/22-rdf-syntax-ns#" xmlns:sodipodi="http://sodipodi.sourceforge.net/DTD/sodipodi-0.dtd" xmlns:svg="http://www.w3.org/2000/svg"
	 xmlns="http://www.w3.org/2000/svg" xmlns:xlink="http://www.w3.org/1999/xlink" x="0px" y="0px" viewBox="0 0 262.2 372"
	 style="enable-background:new 0 0 262.2 372;" xml:space="preserve">
<style type="text/css">
	.st0{enable-background:new    ;}
	.st1{fill:#DA4752;stroke:#DA4752;stroke-width:3;stroke-linecap:round;stroke-linejoin:round;}
	.st2{fill:#FEFEFE;stroke:#FEFEFE;stroke-width:5.000000e-02;}
	.st3{fill:#DA4752;stroke:#DA4752;stroke-width:5.000000e-02;}
</style>
<sodipodi:namedview  bordercolor="#666666" borderopacity="1.0" id="base" inkscape:current-layer="layer1" inkscape:cx="519.80083" inkscape:cy="990.73899" inkscape:document-units="px" inkscape:pageopacity="0.0" inkscape:pageshadow="2" inkscape:window-height="924" inkscape:window-maximized="1" inkscape:window-width="1280" inkscape:window-x="0" inkscape:window-y="28" inkscape:zoom="0.28352528" pagecolor="#ffffff" showgrid="false">
	</sodipodi:namedview>
<g id="layer1" transform="translate(0,-680.31494)" inkscape:groupmode="layer" inkscape:label="Capa 1">
	<g id="g5613" transform="matrix(5.5766335,0,0,5.5766335,-978.59734,-1138.9503)">
		<g>
			<g class="st0">
				<path d="M191.1,381.5V377h1.8v0.6h-1v1.3h0.8v0.6h-0.8v2H191.1z"/>
				<path d="M193.3,381.5V377h1.1c0.3,0,0.6,0,0.8,0.1c0.2,0.1,0.4,0.2,0.5,0.4c0.1,0.2,0.2,0.4,0.2,0.7c0,0.2,0,0.3,0,0.5
					c0,0.1-0.1,0.3-0.2,0.4c-0.1,0.1-0.2,0.2-0.3,0.2l0.6,2.2h-0.8l-0.5-2h-0.4v2H193.3z M194.1,378.9h0.3c0.2,0,0.3,0,0.4-0.1
					c0.1,0,0.2-0.1,0.2-0.2c0-0.1,0.1-0.2,0.1-0.4c0-0.2,0-0.4-0.1-0.5c-0.1-0.1-0.2-0.2-0.5-0.2h-0.3V378.9z"/>
				<path d="M197.6,381.5c-0.3,0-0.6-0.1-0.8-0.2c-0.2-0.1-0.3-0.3-0.4-0.5c-0.1-0.2-0.1-0.5-0.1-0.8v-3h0.8v3.1c0,0.1,0,0.3,0,0.4
					c0,0.1,0.1,0.2,0.1,0.3s0.2,0.1,0.3,0.1c0.1,0,0.2,0,0.3-0.1c0.1-0.1,0.1-0.2,0.1-0.3c0-0.1,0-0.3,0-0.4V377h0.8v3
					c0,0.3,0,0.6-0.1,0.8c-0.1,0.2-0.2,0.4-0.4,0.5S198,381.5,197.6,381.5z"/>
				<path d="M200,381.5v-3.9h-0.7V377h2.2v0.6h-0.7v3.9H200z"/>
				<path d="M203.1,381.5c-0.3,0-0.6-0.1-0.8-0.2c-0.2-0.1-0.3-0.3-0.4-0.5c-0.1-0.2-0.1-0.5-0.1-0.8v-1.7c0-0.3,0-0.6,0.1-0.8
					c0.1-0.2,0.2-0.4,0.4-0.5c0.2-0.1,0.4-0.2,0.8-0.2c0.3,0,0.6,0.1,0.8,0.2c0.2,0.1,0.3,0.3,0.4,0.5c0.1,0.2,0.1,0.5,0.1,0.8v1.7
					c0,0.3,0,0.6-0.1,0.8c-0.1,0.2-0.2,0.4-0.4,0.5C203.7,381.5,203.4,381.5,203.1,381.5z M203.1,380.9c0.1,0,0.2,0,0.3-0.1
					c0.1-0.1,0.1-0.1,0.1-0.2c0-0.1,0-0.2,0-0.3v-2.1c0-0.1,0-0.2,0-0.3s-0.1-0.2-0.1-0.2c-0.1-0.1-0.2-0.1-0.3-0.1
					c-0.1,0-0.2,0-0.3,0.1c-0.1,0.1-0.1,0.1-0.1,0.2s0,0.2,0,0.3v2.1c0,0.1,0,0.2,0,0.3c0,0.1,0.1,0.2,0.1,0.2
					C202.9,380.9,203,380.9,203.1,380.9z"/>
				<path d="M206.1,381.5c-0.3,0-0.5-0.1-0.7-0.2c-0.2-0.1-0.3-0.3-0.4-0.5c-0.1-0.2-0.1-0.4-0.2-0.7l0.7-0.1c0,0.2,0,0.3,0.1,0.5
					c0,0.1,0.1,0.2,0.2,0.3c0.1,0.1,0.2,0.1,0.3,0.1c0.1,0,0.2,0,0.3-0.1c0.1-0.1,0.1-0.2,0.1-0.3c0-0.2,0-0.4-0.1-0.5
					c-0.1-0.1-0.2-0.2-0.4-0.4l-0.6-0.5c-0.2-0.1-0.3-0.3-0.4-0.5c-0.1-0.2-0.1-0.4-0.1-0.6c0-0.4,0.1-0.6,0.3-0.8
					c0.2-0.2,0.5-0.3,0.8-0.3c0.2,0,0.4,0,0.5,0.1c0.1,0.1,0.3,0.2,0.3,0.3c0.1,0.1,0.1,0.2,0.2,0.4c0,0.1,0.1,0.3,0.1,0.5l-0.7,0.1
					c0-0.1,0-0.3,0-0.4c0-0.1-0.1-0.2-0.1-0.3c-0.1-0.1-0.1-0.1-0.3-0.1c-0.1,0-0.2,0-0.3,0.1c-0.1,0.1-0.1,0.2-0.1,0.3
					c0,0.2,0,0.3,0.1,0.4c0.1,0.1,0.2,0.2,0.3,0.3l0.6,0.5c0.2,0.2,0.3,0.3,0.5,0.5c0.1,0.2,0.2,0.5,0.2,0.8c0,0.2,0,0.4-0.1,0.6
					c-0.1,0.2-0.2,0.3-0.4,0.4C206.5,381.5,206.3,381.5,206.1,381.5z"/>
			</g>
		</g>
		<g class="st0">
			<path d="M185.8,388.3v-4.5h1.1c0.4,0,0.6,0,0.8,0.1c0.2,0.1,0.3,0.3,0.4,0.5c0.1,0.2,0.1,0.5,0.1,0.8v1.6c0,0.3,0,0.6-0.1,0.8
				c-0.1,0.2-0.2,0.4-0.4,0.5c-0.2,0.1-0.5,0.2-0.8,0.2H185.8z M186.6,387.8h0.2c0.2,0,0.3,0,0.4-0.1c0.1-0.1,0.1-0.2,0.1-0.3
				c0-0.1,0-0.3,0-0.5v-1.7c0-0.2,0-0.3,0-0.4c0-0.1-0.1-0.2-0.2-0.2c-0.1-0.1-0.2-0.1-0.4-0.1h-0.2V387.8z"/>
			<path d="M188.9,388.3v-4.5h1.9v0.6h-1.1v1.3h0.8v0.6h-0.8v1.5h1.1v0.6H188.9z"/>
			<path d="M193.8,388.4c-0.3,0-0.6-0.1-0.8-0.2c-0.2-0.1-0.3-0.3-0.4-0.5c-0.1-0.2-0.1-0.5-0.1-0.8v-1.6c0-0.3,0-0.6,0.1-0.8
				c0.1-0.2,0.2-0.4,0.4-0.5c0.2-0.1,0.4-0.2,0.8-0.2c0.3,0,0.5,0.1,0.7,0.2c0.2,0.1,0.3,0.3,0.4,0.4c0.1,0.2,0.1,0.4,0.1,0.7v0.4
				h-0.8v-0.4c0-0.1,0-0.2,0-0.3c0-0.1,0-0.2-0.1-0.2c-0.1-0.1-0.2-0.1-0.3-0.1c-0.1,0-0.2,0-0.3,0.1c-0.1,0.1-0.1,0.2-0.1,0.3
				c0,0.1,0,0.2,0,0.4v1.9c0,0.2,0,0.3,0,0.4s0.1,0.2,0.1,0.2c0.1,0.1,0.2,0.1,0.3,0.1c0.1,0,0.2,0,0.3-0.1c0.1-0.1,0.1-0.1,0.1-0.3
				c0-0.1,0-0.2,0-0.4v-0.4h0.8v0.4c0,0.3,0,0.5-0.1,0.7c-0.1,0.2-0.2,0.4-0.4,0.5C194.3,388.3,194.1,388.4,193.8,388.4z"/>
			<path d="M195.3,388.3l0.9-4.5h0.9l0.9,4.5h-0.8l-0.2-1h-0.8l-0.2,1H195.3z M196.3,386.8h0.6l-0.3-1.9L196.3,386.8z M196.4,383.6
				l0.3-1.1h0.8l-0.7,1.1H196.4z"/>
			<path d="M199.5,388.4c-0.3,0-0.5-0.1-0.7-0.2c-0.2-0.1-0.3-0.3-0.4-0.5c-0.1-0.2-0.1-0.4-0.2-0.7l0.7-0.1c0,0.2,0,0.3,0.1,0.5
				c0,0.1,0.1,0.2,0.2,0.3c0.1,0.1,0.2,0.1,0.3,0.1c0.1,0,0.2,0,0.3-0.1s0.1-0.2,0.1-0.3c0-0.2,0-0.4-0.1-0.5
				c-0.1-0.1-0.2-0.2-0.4-0.4l-0.6-0.5c-0.2-0.1-0.3-0.3-0.4-0.5c-0.1-0.2-0.1-0.4-0.1-0.6c0-0.4,0.1-0.6,0.3-0.8
				c0.2-0.2,0.5-0.3,0.8-0.3c0.2,0,0.4,0,0.5,0.1c0.1,0.1,0.3,0.2,0.3,0.3c0.1,0.1,0.1,0.2,0.2,0.4c0,0.1,0.1,0.3,0.1,0.5l-0.7,0.1
				c0-0.1,0-0.3,0-0.4c0-0.1-0.1-0.2-0.1-0.3c-0.1-0.1-0.1-0.1-0.3-0.1c-0.1,0-0.2,0-0.3,0.1c-0.1,0.1-0.1,0.2-0.1,0.3
				c0,0.2,0,0.3,0.1,0.4c0.1,0.1,0.2,0.2,0.3,0.3l0.6,0.5c0.2,0.2,0.3,0.3,0.5,0.5c0.1,0.2,0.2,0.5,0.2,0.8c0,0.2,0,0.4-0.1,0.6
				c-0.1,0.2-0.2,0.3-0.4,0.4C199.9,388.4,199.7,388.4,199.5,388.4z"/>
			<path d="M202.3,388.4c-0.3,0-0.6-0.1-0.8-0.2c-0.2-0.1-0.3-0.3-0.4-0.5c-0.1-0.2-0.1-0.5-0.1-0.8v-1.6c0-0.3,0-0.6,0.1-0.8
				c0.1-0.2,0.2-0.4,0.4-0.5c0.2-0.1,0.4-0.2,0.8-0.2c0.3,0,0.5,0.1,0.7,0.2c0.2,0.1,0.3,0.3,0.4,0.4c0.1,0.2,0.1,0.4,0.1,0.7v0.4
				h-0.8v-0.4c0-0.1,0-0.2,0-0.3c0-0.1,0-0.2-0.1-0.2c-0.1-0.1-0.2-0.1-0.3-0.1c-0.1,0-0.2,0-0.3,0.1c-0.1,0.1-0.1,0.2-0.1,0.3
				c0,0.1,0,0.2,0,0.4v1.9c0,0.2,0,0.3,0,0.4c0,0.1,0.1,0.2,0.1,0.2c0.1,0.1,0.2,0.1,0.3,0.1c0.1,0,0.2,0,0.3-0.1
				c0.1-0.1,0.1-0.1,0.1-0.3c0-0.1,0-0.2,0-0.4v-0.4h0.8v0.4c0,0.3,0,0.5-0.1,0.7c-0.1,0.2-0.2,0.4-0.4,0.5
				C202.9,388.3,202.6,388.4,202.3,388.4z"/>
			<path d="M203.8,388.3l0.9-4.5h0.9l0.9,4.5h-0.8l-0.2-1h-0.8l-0.2,1H203.8z M204.9,386.8h0.6l-0.3-1.9L204.9,386.8z"/>
			<path d="M206.9,388.3v-4.5h1.1c0.3,0,0.6,0,0.8,0.1c0.2,0.1,0.4,0.2,0.5,0.4c0.1,0.2,0.2,0.4,0.2,0.7c0,0.2,0,0.3,0,0.5
				c0,0.1-0.1,0.3-0.2,0.4c-0.1,0.1-0.2,0.2-0.3,0.2l0.6,2.2h-0.8l-0.5-2h-0.4v2H206.9z M207.7,385.8h0.3c0.2,0,0.3,0,0.4-0.1
				c0.1,0,0.2-0.1,0.2-0.2c0-0.1,0.1-0.2,0.1-0.4c0-0.2,0-0.4-0.1-0.5c-0.1-0.1-0.2-0.2-0.5-0.2h-0.3V385.8z"/>
			<path d="M209.8,388.3l0.9-4.5h0.9l0.9,4.5h-0.8l-0.2-1h-0.8l-0.2,1H209.8z M210.8,386.8h0.6l-0.3-1.9L210.8,386.8z"/>
		</g>
		<g id="g5591">
			
				<path id="path3230-2-55" sodipodi:cx="21.573027" sodipodi:cy="29.287827" sodipodi:rx="18.363815" sodipodi:ry="18.720394" sodipodi:type="arc" class="st1" d="
				M218.1,351.4c0,10.6-8.6,19.1-19.1,19.1s-19.1-8.6-19.1-19.1c0-10.6,8.6-19.1,19.1-19.1S218.1,340.9,218.1,351.4z"/>
			<g id="g4083" transform="translate(-134.18236,323.11305)">
				<g id="g4111">
					
						<path id="path4080" inkscape:connector-curvature="0" sodipodi:nodetypes="cccccccccccccccccccccccccccccccccccccccccccccccccccccccccccccccccccccccccc" class="st2" d="
						M333.2,15.2l-0.7,2.2c-0.5,1.8-0.8,3.8-1.2,5.8c-0.1,0.7-0.1,1.4-0.4,2.2l-0.3,1.6l-0.1,1.2l-0.1,1.7l0,2.5l0.2,2.4l0.3,1.9
						l0.6,2.3l0.7,1.6l0.2,0.4l0.4,0.3l-0.3-1.7l-0.8-2.3l-0.6-2.3l-0.3-1.6l-0.1-2.9c0-1,0.1-1.8,0.2-2.6l0.2-2.1l0.6-3l0.7-2.3
						l0.5-1.5c0.3-0.6,0.6-1.3,0.9-1.8c-0.2,0.6-0.5,1.2-0.7,1.9c-0.1,0.5-0.3,1.1-0.4,1.7l-0.4,2.6l-0.3,2.3l-0.2,1.6l-0.3,1.6
						l-0.1,1.5l0.1,1.7l0.1,1.5l0.1,1.6l0.2,1.7l0.4,1.7l0.4,1l0.2,0.5l0.4-0.7l0.6-0.1l0.7,0.4l1.1,0.9l1,0.5h0.7l-0.4-0.7
						c-0.1-0.5-0.2-1.1-0.1-1.6c0.1-1.1,0.2-2.3,0.3-3.3l0.2,2.1l0.1,1.7l0.2,1.9c0.5-0.2,1-0.3,1.4-0.5l1.2-0.6
						c0.3-0.7,0.7-1.4,0.8-2.3l0.2-0.8c0.1,0.3,0.2,0.8,0.2,1.2l0,0.7l0,0.5l1-0.8c0.4-0.4,0.6-0.8,0.7-1.1c0.3-0.6,0.4-1.1,0.5-1.6
						c0.2-0.7,0.2-1.4,0.3-2.2l-0.1-3.1c-0.1-1-0.3-2.1-0.5-3.1c-0.2-0.9-0.6-1.8-0.9-2.7c-0.4-0.7-0.8-1.4-1.4-2.1
						c-0.6-0.8-1.3-1.6-2.2-2.3l-1.1-0.8l-0.9-0.6l-1.2-0.6l-1.2-0.8l-0.9-0.9l-0.4-0.6L333.2,15.2z"/>
					<g id="g4100">
						<path id="path4082" inkscape:connector-curvature="0" sodipodi:nodetypes="ccccccccccccccc" class="st3" d="M335.2,22.3v-0.5
							l-0.1-0.6l-0.1-0.5l-0.2-0.8l-0.4-0.8l-0.1-0.4l-0.1-0.3l0,0.6v0.5l0.1,0.5l0.2,0.6l0.2,0.6l0.3,0.5L335.2,22.3z"/>
						<path id="path4084" inkscape:connector-curvature="0" class="st3" d="M337.8,19.9l0.4,0.4l0.5,0.5l0.6,0.6l0.4,0.5l0.3,0.4
							l0.3,0.4l0.3,0.5l0.2,0.4l0.2,0.4l0.2,0.4l0.1,0.3l0.1,0.4l0.1,0.4L341,25l-0.8-1.1l-0.5-0.7l-0.5-0.7l-0.4-0.7l-0.4-0.7
							l-0.4-0.7L337.8,19.9z"/>
						<path id="path4086" inkscape:connector-curvature="0" class="st3" d="M338.7,25.5l0.2,0.7l0.3,0.9l0.2,0.8l0.3,0.7l0.3,0.7
							l0.3,0.6l0.2,0.4l-0.1-1l-0.1-1.3l-0.1-0.7l-0.2-0.6l-0.2-0.5l-0.2-0.2l-0.5-0.4l-0.1-0.1L338.7,25.5z"/>
						<path id="path4088" inkscape:connector-curvature="0" class="st3" d="M336.1,25.5l0,0.8v0.9l0.1,0.8l0.1,1.1l0.1,0.6l0.1,0.6
							l0.1-1.1l0.1-0.9l0-0.6l0-0.6l-0.1-0.5l-0.1-0.4l-0.2-0.3L336.1,25.5z"/>
						<path id="path4090" inkscape:connector-curvature="0" class="st3" d="M334.5,31.7l-0.2-0.5l-0.1-0.7l-0.1-0.7l-0.1-0.7
							l-0.1-0.4l-0.1-0.6l-0.1-0.5l-0.1,0.3l-0.1,0.5l-0.1,0.5l0,0.4l0,0.5l0.1,0.6l0.2,0.5l0.2,0.4l0.2,0.3L334.5,31.7z"/>
						<path id="path4092" inkscape:connector-curvature="0" class="st3" d="M338.4,33.9l0.1-0.4l0.1-0.3l0.1-0.4l0-0.4l0-0.4l0-0.3
							l-0.1-0.5l-0.1-0.5l-0.1-0.6l-0.1-0.3l-0.1,0.4l-0.1,0.5l-0.1,0.6v0.8l0.1,0.5l0.1,0.5l0.1,0.4L338.4,33.9z"/>
						<path id="path4094" inkscape:connector-curvature="0" class="st3" d="M342.8,34.1l0.2-0.8l0.1-1.5l0-0.9l-0.1-0.9l-0.3-0.8
							l-0.3-0.5l-0.4-0.3l-0.3-0.1l0.2,0.4l0.2,0.5l0.1,0.5l0.1,0.6l0.1,1l0.1,0.7l0.1,0.6l0.1,0.5l0.1,0.3L342.8,34.1z"/>
						<path id="path4096" inkscape:connector-curvature="0" class="st3" d="M339.6,38.5l0.2-0.3l0.2-0.4l0.1-0.7l0-0.7l-0.1-0.6
							l-0.1-0.8l-0.1-0.5l-0.1-0.3l-0.2,0.4l-0.1,0.6l-0.1,0.7l0,0.5v0.5v0.8L339.6,38.5L339.6,38.5L339.6,38.5z"/>
						<path id="path4098" inkscape:connector-curvature="0" class="st3" d="M333.6,33.3l0.1,0.6l0.1,0.6l0.2,0.6l0.3,0.8l0.3,0.5
							L335,37l0.2,0.4l0.2,0.3l0.1,0.2l0.2,0.5l-0.6-0.6l-0.7-0.8l-0.5-0.8l-0.4-0.7l-0.2-0.9l0-0.4l0.1-0.4l0.1-0.4L333.6,33.3z"/>
					</g>
				</g>
				
					<path id="path3303" inkscape:connector-curvature="0" sodipodi:nodetypes="ccccccccccccccccccccccccccccccccccccc" class="st2" d="
					M332,41.2l-1-1.4l-0.6-1.2c-0.5-1-0.6-2-0.8-3.1c-0.4-2-0.5-4.1-0.6-6.1l0.2-2.9c0.1-1.1,0.3-2.2,0.6-3.2l0.9-2.7l1.1-3l0.2-0.8
					l-0.8,0.6l-1.4,0.9l-1.6,1c-0.7,0.3-1.2,0.8-1.7,1.2c-0.7,0.7-1.2,1.5-1.8,2.2c-0.5,1-1,2.1-1.4,3.3c-0.3,0.9-0.5,1.7-0.7,2.6
					c-0.2,0.7-0.3,1.8-0.5,2.6l-0.2,2.6c0.1,0.5-0.1,1,0.2,1.6c0,0.4,0.4,0.8,0.6,1.2l1.1,1.2l0.5,0.4l-0.5-0.9l-0.1-0.8l0.1-0.5
					c0.5,0.6,0.8,1.2,1.1,1.9l0.8,1.2l1,1c0.6,0.3,1.2,0.7,1.7,0.7l0.7,0.1c-0.2-0.6-0.5-1.3-0.2-1.9l1,1.5l0.4-0.4
					c0.3,0.3,0.5,0.8,1,1.1C331.4,41,331.6,41.1,332,41.2L332,41.2z"/>
				<path id="path4073" inkscape:connector-curvature="0" sodipodi:nodetypes="cccccccccccccccccc" class="st3" d="M327.9,21.6
					l0.3-0.5l0.3-0.6l0.5-0.8c0.2-0.2,0.3-0.4,0.5-0.5l-0.5,0.1c-0.2,0-0.4,0.1-0.5,0.2c-0.2,0.1-0.3,0.2-0.3,0.4l-0.3,0.5l-0.3,0.5
					l-0.4,0.4l-0.4,0.4l-0.1,0.4l0,0.3l0.3-0.1l0.4-0.2l0.2-0.2L327.9,21.6z"/>
				<path id="path4075" inkscape:connector-curvature="0" sodipodi:nodetypes="cccccccccccccc" class="st3" d="M327.8,29.2l0.1-1.8
					l0.2-1.8l0.1-0.9l0.2-1.1l0.2-0.8c-0.3,0.2-0.4,0.4-0.6,0.6l-0.4,1l-0.2,1l-0.1,0.9l0.1,1l0.1,0.8L327.8,29.2L327.8,29.2z"/>
				<path id="path4077" inkscape:connector-curvature="0" sodipodi:nodetypes="cccccccccccc" class="st3" d="M325.5,28.5
					c0.1-0.3,0.2-0.5,0.2-0.8c0-0.4,0.1-0.7,0-1.1v-0.8l-0.2-1l-0.2-0.5l-0.3,1.2l0,0.9c0,0.3,0,0.6,0.1,0.8l0.1,0.4l0.2,0.6
					L325.5,28.5z"/>
				<path id="path4079" inkscape:connector-curvature="0" sodipodi:nodetypes="ccccccccccccc" class="st3" d="M323.7,28l0,0.7l0,2.1
					l0.1,1.3l0.1,1.1l0.1,1.2l-0.4-0.9c-0.2-0.5-0.3-1-0.5-1.5l-0.1-1.2v-0.7c0-0.4,0.1-0.7,0.2-1.1c0.1-0.3,0.2-0.5,0.3-0.8
					C323.5,28.3,323.6,28.1,323.7,28L323.7,28z"/>
				<path id="path4081" inkscape:connector-curvature="0" sodipodi:nodetypes="cccccccccccccccccccc" class="st3" d="M325.9,31.3
					c0.1,0.4,0.2,0.6,0.2,0.9l0.1,1l0.2,1.2l0.1,0.5l0.3,0.6l0.1,0.3l0.1,0.4l0,0.5l-0.2-0.1l-0.1-0.2l-0.1-0.3
					c0-0.2-0.2-0.4-0.3-0.5l-0.4-0.5l-0.2-0.4l-0.1-0.8v-0.6l0.3-1.6L325.9,31.3L325.9,31.3z"/>
			</g>
		</g>
	</g>
</g>
</svg>
