<?xml version="1.0" encoding="utf-8"?>
<!-- Generator: Adobe Illustrator 22.0.0, SVG Export Plug-In . SVG Version: 6.00 Build 0)  -->
<svg version="1.1"
	 id="svg4209" inkscape:version="0.48.5 r10040" sodipodi:docname="IconoAlergenoMoluscos-Mollusks.svg" xmlns:cc="http://creativecommons.org/ns#" xmlns:dc="http://purl.org/dc/elements/1.1/" xmlns:inkscape="http://www.inkscape.org/namespaces/inkscape" xmlns:rdf="http://www.w3.org/1999/02/22-rdf-syntax-ns#" xmlns:sodipodi="http://sodipodi.sourceforge.net/DTD/sodipodi-0.dtd" xmlns:svg="http://www.w3.org/2000/svg"
	 xmlns="http://www.w3.org/2000/svg" xmlns:xlink="http://www.w3.org/1999/xlink" x="0px" y="0px" viewBox="0 0 262.2 372"
	 style="enable-background:new 0 0 262.2 372;" xml:space="preserve">
<style type="text/css">
	.st0{enable-background:new    ;}
	.st1{fill:#4DC4D5;stroke:#4DC4D5;stroke-width:3;stroke-linecap:round;stroke-linejoin:round;}
	.st2{fill:#F9F9F9;stroke:#F9F9F9;stroke-width:5.000000e-02;stroke-linecap:round;stroke-linejoin:round;}
	.st3{fill:#4DC4D5;stroke:#4DC4D5;stroke-width:5.000000e-02;stroke-linecap:round;stroke-linejoin:round;}
</style>
<sodipodi:namedview  bordercolor="#666666" borderopacity="1.0" id="base" inkscape:current-layer="layer1" inkscape:cx="930.07201" inkscape:cy="677.36858" inkscape:document-units="px" inkscape:pageopacity="0.0" inkscape:pageshadow="2" inkscape:window-height="924" inkscape:window-maximized="1" inkscape:window-width="1280" inkscape:window-x="0" inkscape:window-y="28" inkscape:zoom="0.20031052" pagecolor="#ffffff" showgrid="false">
	</sodipodi:namedview>
<g id="layer1" transform="translate(0,-680.31494)" inkscape:groupmode="layer" inkscape:label="Capa 1">
	<g id="g3566" transform="matrix(5.5766335,0,0,5.5766335,-1055.5752,-1091.6577)">
		<g class="st0">
			<path d="M201.2,376.1l0.1-4.5h0.8l0.6,3.1l0.7-3.1h0.8l0.1,4.5h-0.6l-0.1-3.1l-0.6,3.1h-0.5l-0.6-3.1l-0.1,3.1H201.2z"/>
			<path d="M206.1,376.2c-0.3,0-0.6-0.1-0.8-0.2c-0.2-0.1-0.3-0.3-0.4-0.5c-0.1-0.2-0.1-0.5-0.1-0.8v-1.7c0-0.3,0-0.6,0.1-0.8
				c0.1-0.2,0.2-0.4,0.4-0.5c0.2-0.1,0.4-0.2,0.8-0.2c0.3,0,0.6,0.1,0.8,0.2c0.2,0.1,0.3,0.3,0.4,0.5c0.1,0.2,0.1,0.5,0.1,0.8v1.7
				c0,0.3,0,0.6-0.1,0.8c-0.1,0.2-0.2,0.4-0.4,0.5C206.7,376.1,206.5,376.2,206.1,376.2z M206.1,375.6c0.1,0,0.2,0,0.3-0.1
				c0.1-0.1,0.1-0.1,0.1-0.2c0-0.1,0-0.2,0-0.3v-2.1c0-0.1,0-0.2,0-0.3c0-0.1-0.1-0.2-0.1-0.2c-0.1-0.1-0.2-0.1-0.3-0.1
				c-0.1,0-0.2,0-0.3,0.1c-0.1,0.1-0.1,0.1-0.1,0.2c0,0.1,0,0.2,0,0.3v2.1c0,0.1,0,0.2,0,0.3c0,0.1,0.1,0.2,0.1,0.2
				C205.9,375.6,206,375.6,206.1,375.6z"/>
			<path d="M208,376.1v-4.5h0.8v3.9h1.1v0.6H208z"/>
			<path d="M211.5,376.2c-0.3,0-0.6-0.1-0.8-0.2c-0.2-0.1-0.3-0.3-0.4-0.5c-0.1-0.2-0.1-0.5-0.1-0.8v-3h0.8v3.1c0,0.1,0,0.3,0,0.4
				c0,0.1,0.1,0.2,0.1,0.3c0.1,0.1,0.2,0.1,0.3,0.1c0.1,0,0.2,0,0.3-0.1c0.1-0.1,0.1-0.2,0.1-0.3c0-0.1,0-0.3,0-0.4v-3.1h0.8v3
				c0,0.3,0,0.6-0.1,0.8c-0.1,0.2-0.2,0.4-0.4,0.5C212.1,376.1,211.8,376.2,211.5,376.2z"/>
			<path d="M214.5,376.2c-0.3,0-0.5-0.1-0.7-0.2c-0.2-0.1-0.3-0.3-0.4-0.5c-0.1-0.2-0.1-0.4-0.2-0.7l0.7-0.1c0,0.2,0,0.3,0.1,0.5
				c0,0.1,0.1,0.2,0.2,0.3c0.1,0.1,0.2,0.1,0.3,0.1c0.1,0,0.2,0,0.3-0.1c0.1-0.1,0.1-0.2,0.1-0.3c0-0.2,0-0.4-0.1-0.5
				c-0.1-0.1-0.2-0.2-0.4-0.4l-0.6-0.5c-0.2-0.1-0.3-0.3-0.4-0.5c-0.1-0.2-0.1-0.4-0.1-0.6c0-0.4,0.1-0.6,0.3-0.8
				c0.2-0.2,0.5-0.3,0.8-0.3c0.2,0,0.4,0,0.5,0.1c0.1,0.1,0.3,0.2,0.3,0.3c0.1,0.1,0.1,0.2,0.2,0.4c0,0.1,0.1,0.3,0.1,0.5l-0.7,0.1
				c0-0.1,0-0.3,0-0.4c0-0.1-0.1-0.2-0.1-0.3s-0.1-0.1-0.3-0.1c-0.1,0-0.2,0-0.3,0.1c-0.1,0.1-0.1,0.2-0.1,0.3c0,0.2,0,0.3,0.1,0.4
				c0.1,0.1,0.2,0.2,0.3,0.3l0.6,0.5c0.2,0.2,0.3,0.3,0.5,0.5c0.1,0.2,0.2,0.5,0.2,0.8c0,0.2,0,0.4-0.1,0.6
				c-0.1,0.2-0.2,0.3-0.4,0.4C214.9,376.2,214.8,376.2,214.5,376.2z"/>
			<path d="M217.3,376.2c-0.3,0-0.6-0.1-0.8-0.2c-0.2-0.1-0.3-0.3-0.4-0.5c-0.1-0.2-0.1-0.5-0.1-0.8v-1.6c0-0.3,0-0.6,0.1-0.8
				c0.1-0.2,0.2-0.4,0.4-0.5c0.2-0.1,0.4-0.2,0.8-0.2c0.3,0,0.5,0.1,0.7,0.2c0.2,0.1,0.3,0.3,0.4,0.4c0.1,0.2,0.1,0.4,0.1,0.7v0.4
				h-0.8v-0.4c0-0.1,0-0.2,0-0.3c0-0.1,0-0.2-0.1-0.2c-0.1-0.1-0.2-0.1-0.3-0.1c-0.1,0-0.2,0-0.3,0.1c-0.1,0.1-0.1,0.2-0.1,0.3
				c0,0.1,0,0.2,0,0.4v1.9c0,0.2,0,0.3,0,0.4s0.1,0.2,0.1,0.2c0.1,0.1,0.2,0.1,0.3,0.1c0.1,0,0.2,0,0.3-0.1c0.1-0.1,0.1-0.1,0.1-0.3
				c0-0.1,0-0.2,0-0.4v-0.4h0.8v0.4c0,0.3,0,0.5-0.1,0.7c-0.1,0.2-0.2,0.4-0.4,0.5C217.9,376.1,217.6,376.2,217.3,376.2z"/>
			<path d="M220.3,376.2c-0.3,0-0.6-0.1-0.8-0.2c-0.2-0.1-0.3-0.3-0.4-0.5c-0.1-0.2-0.1-0.5-0.1-0.8v-1.7c0-0.3,0-0.6,0.1-0.8
				c0.1-0.2,0.2-0.4,0.4-0.5c0.2-0.1,0.4-0.2,0.8-0.2c0.3,0,0.6,0.1,0.8,0.2c0.2,0.1,0.3,0.3,0.4,0.5c0.1,0.2,0.1,0.5,0.1,0.8v1.7
				c0,0.3,0,0.6-0.1,0.8c-0.1,0.2-0.2,0.4-0.4,0.5C220.9,376.1,220.6,376.2,220.3,376.2z M220.3,375.6c0.1,0,0.2,0,0.3-0.1
				c0.1-0.1,0.1-0.1,0.1-0.2c0-0.1,0-0.2,0-0.3v-2.1c0-0.1,0-0.2,0-0.3c0-0.1-0.1-0.2-0.1-0.2c-0.1-0.1-0.2-0.1-0.3-0.1
				c-0.1,0-0.2,0-0.3,0.1c-0.1,0.1-0.1,0.1-0.1,0.2c0,0.1,0,0.2,0,0.3v2.1c0,0.1,0,0.2,0,0.3c0,0.1,0.1,0.2,0.1,0.2
				C220.1,375.6,220.2,375.6,220.3,375.6z"/>
			<path d="M223.3,376.2c-0.3,0-0.5-0.1-0.7-0.2c-0.2-0.1-0.3-0.3-0.4-0.5c-0.1-0.2-0.1-0.4-0.2-0.7l0.7-0.1c0,0.2,0,0.3,0.1,0.5
				c0,0.1,0.1,0.2,0.2,0.3c0.1,0.1,0.2,0.1,0.3,0.1c0.1,0,0.2,0,0.3-0.1c0.1-0.1,0.1-0.2,0.1-0.3c0-0.2,0-0.4-0.1-0.5
				c-0.1-0.1-0.2-0.2-0.4-0.4l-0.6-0.5c-0.2-0.1-0.3-0.3-0.4-0.5c-0.1-0.2-0.1-0.4-0.1-0.6c0-0.4,0.1-0.6,0.3-0.8
				c0.2-0.2,0.5-0.3,0.8-0.3c0.2,0,0.4,0,0.5,0.1c0.1,0.1,0.3,0.2,0.3,0.3c0.1,0.1,0.1,0.2,0.2,0.4c0,0.1,0.1,0.3,0.1,0.5l-0.7,0.1
				c0-0.1,0-0.3,0-0.4c0-0.1-0.1-0.2-0.1-0.3c-0.1-0.1-0.1-0.1-0.3-0.1c-0.1,0-0.2,0-0.3,0.1c-0.1,0.1-0.1,0.2-0.1,0.3
				c0,0.2,0,0.3,0.1,0.4c0.1,0.1,0.2,0.2,0.3,0.3l0.6,0.5c0.2,0.2,0.3,0.3,0.5,0.5c0.1,0.2,0.2,0.5,0.2,0.8c0,0.2,0,0.4-0.1,0.6
				c-0.1,0.2-0.2,0.3-0.4,0.4C223.7,376.2,223.5,376.2,223.3,376.2z"/>
		</g>
		<g id="g3555">
			
				<path id="path3230-2-1" sodipodi:cx="21.573027" sodipodi:cy="29.287827" sodipodi:rx="18.363815" sodipodi:ry="18.720394" sodipodi:type="arc" class="st1" d="
				M231.9,346.6c0,10.6-8.6,19.1-19.1,19.1s-19.1-8.6-19.1-19.1c0-10.6,8.6-19.1,19.1-19.1S231.9,336.1,231.9,346.6z"/>
			<g id="g3981" transform="translate(-389.31718,317.89818)">
				
					<path id="path3192" inkscape:connector-curvature="0" sodipodi:nodetypes="cccccccccccccccccccccccccccccccccccccccccccccccccccccccccccccc" class="st2" d="
					M598.8,15.7l-1.1,0.2c-0.5,0.1-1,0.4-1.3,0.7l-1,0.8l-0.8,0.7l-1,0.5l-1,0.2l-1.3,0.3l-1,1l-0.6,1.2l-0.7,1.3
					c-0.2,0.2-0.5,0.4-1,0.6c-0.4,0.2-0.5,0.3-0.9,0.7c-0.3,0.3-0.5,0.7-0.4,1.3l0.1,1l0.2,0.8c-0.2,0.3,0,0.7,0,1.1
					c0.1,0.7,0.2,1.3,0.6,1.9c0.4,0.8,1.1,1.6,1.8,2.4l2.1,2l2.4,2l1.8,1.3l-0.3,0.7l-0.7,1.1c-0.2,0.3-0.3,0.6-0.2,0.9
					c0,0.6,0.3,0.9,0.6,1.2c0.6,0.2,1.2,0.3,1.8,0.2h11.6l1-0.4c0.3-0.1,0.5-0.4,0.6-0.8c0-0.3,0-0.6-0.1-0.9c0-0.7-0.8-1.4-1.2-2.1
					c0.9-0.5,1.8-1,2.6-1.8l2.8-2.4l1.9-1.9l0.9-1.3l0.5-1.1l0.2-1.1l0-0.7V27l0-0.8c0.1-0.2,0.1-0.7,0.2-1.1
					c0.1-0.4-0.2-0.8-0.3-1.1l-0.4-0.5l-0.9-0.4l-0.8-0.5l-0.3-0.5c0.1-0.3-0.4-0.8-0.5-1.1c-0.1-0.4-0.6-0.9-1-1.4l-0.7-0.4
					l-1.3-0.4l-1-0.2l-1.2-0.6l-1-0.9c-0.2-0.3-0.8-0.6-1.4-0.9l-0.7-0.2h-1.2l-1.7,0.4l-0.7,0.1l-1.2,0l-1.3-0.3L598.8,15.7z"/>
				<g id="g3974">
					<path id="path3964" inkscape:connector-curvature="0" class="st3" d="M591.2,23.8l-0.2,0.2l-0.2,0.2l-0.2,0.2l-0.2,0.2
						l-0.3,0.1l-0.2,0.1l7.8,7.9L591.2,23.8z"/>
					<path id="path3966" inkscape:connector-curvature="0" class="st3" d="M596.7,19.4l-0.2,0.2l-0.2,0.2l-0.2,0.1l-0.2,0.1l-0.1,0
						l-0.1,0.1l-0.3,0.2l-0.2,0.1l4.9,11.9L596.7,19.4z"/>
					<path id="path3968" inkscape:connector-curvature="0" class="st3" d="M601.8,18.1l0.3,0.1l0.2,0h0.2l0.3,0l0.3,0l0.3,0l0.1,0
						l0.2,0h0.1l-0.9,14.4L601.8,18.1z"/>
					<path id="path3970" inkscape:connector-curvature="0" class="st3" d="M608.7,19.4l0.3,0.2l0.2,0.2l0.2,0.1l0.2,0.1l0.1,0
						l0.2,0.1l0.2,0.1l0.3,0.1l-5,11.9L608.7,19.4z"/>
					<path id="path3972" inkscape:connector-curvature="0" class="st3" d="M614.2,23.7l0.2,0.2l0.2,0.2l0.3,0.2l0.3,0.2l0.3,0.2
						l-7.8,8L614.2,23.7z"/>
				</g>
			</g>
		</g>
	</g>
</g>
</svg>
