<?xml version="1.0" encoding="utf-8"?>
<!-- Generator: Adobe Illustrator 22.0.0, SVG Export Plug-In . SVG Version: 6.00 Build 0)  -->
<svg version="1.1"
	 id="svg4209" inkscape:version="0.48.5 r10040" sodipodi:docname="IconoAlergenoDioxidoAzufreSulfitos.svg" xmlns:cc="http://creativecommons.org/ns#" xmlns:dc="http://purl.org/dc/elements/1.1/" xmlns:inkscape="http://www.inkscape.org/namespaces/inkscape" xmlns:rdf="http://www.w3.org/1999/02/22-rdf-syntax-ns#" xmlns:sodipodi="http://sodipodi.sourceforge.net/DTD/sodipodi-0.dtd" xmlns:svg="http://www.w3.org/2000/svg"
	 xmlns="http://www.w3.org/2000/svg" xmlns:xlink="http://www.w3.org/1999/xlink" x="0px" y="0px" viewBox="0 0 262.2 372"
	 style="enable-background:new 0 0 262.2 372;" xml:space="preserve">
<style type="text/css">
	.st0{enable-background:new    ;}
	.st1{fill:#82104E;stroke:#82104E;stroke-width:3;stroke-linecap:round;stroke-linejoin:round;}
	.st2{fill:#FFFFFF;}
	.st3{font-family:'Arial-BoldMT';}
	.st4{font-size:41.03px;}
	.st5{fill:#FFFFFF;stroke:#FFFFFF;stroke-width:5.000000e-02;stroke-linecap:round;stroke-linejoin:round;}
	.st6{fill:#82104E;stroke:#82104E;stroke-width:5.000000e-02;}
	.st7{fill:#FFFFFF;stroke:#FFFFFF;stroke-width:5.000000e-02;}
	.st8{fill:#FFFFFF;stroke:#82104E;stroke-width:0.7786;stroke-linecap:round;stroke-linejoin:round;}
</style>
<sodipodi:namedview  bordercolor="#666666" borderopacity="1.0" id="base" inkscape:current-layer="layer1" inkscape:cx="751.07539" inkscape:cy="884.34989" inkscape:document-units="px" inkscape:pageopacity="0.0" inkscape:pageshadow="2" inkscape:window-height="924" inkscape:window-maximized="1" inkscape:window-width="1280" inkscape:window-x="0" inkscape:window-y="28" inkscape:zoom="0.20031052" pagecolor="#ffffff" showgrid="false">
	</sodipodi:namedview>
<g id="layer1" transform="translate(0,-680.31494)" inkscape:groupmode="layer" inkscape:label="Capa 1">
	<g id="g3298" transform="matrix(4.1030005,0,0,4.1030005,-784.27251,-540.32916)">
		<g class="st0">
			<path d="M202.2,364.4V360h1.1c0.4,0,0.6,0,0.8,0.1c0.2,0.1,0.3,0.3,0.4,0.5c0.1,0.2,0.1,0.5,0.1,0.8v1.6c0,0.3,0,0.6-0.1,0.8
				c-0.1,0.2-0.2,0.4-0.4,0.5c-0.2,0.1-0.5,0.2-0.8,0.2H202.2z M203.1,363.9h0.2c0.2,0,0.3,0,0.4-0.1c0.1-0.1,0.1-0.2,0.1-0.3
				c0-0.1,0-0.3,0-0.5v-1.7c0-0.2,0-0.3,0-0.4c0-0.1-0.1-0.2-0.2-0.2c-0.1-0.1-0.2-0.1-0.4-0.1h-0.2V363.9z"/>
			<path d="M205.3,364.4V360h0.8v4.5H205.3z"/>
			<path d="M208,364.5c-0.3,0-0.6-0.1-0.8-0.2c-0.2-0.1-0.3-0.3-0.4-0.5c-0.1-0.2-0.1-0.5-0.1-0.8v-1.7c0-0.3,0-0.6,0.1-0.8
				s0.2-0.4,0.4-0.5c0.2-0.1,0.4-0.2,0.8-0.2c0.3,0,0.6,0.1,0.8,0.2c0.2,0.1,0.3,0.3,0.4,0.5c0.1,0.2,0.1,0.5,0.1,0.8v1.7
				c0,0.3,0,0.6-0.1,0.8c-0.1,0.2-0.2,0.4-0.4,0.5C208.6,364.4,208.4,364.5,208,364.5z M208,363.9c0.1,0,0.2,0,0.3-0.1
				c0.1-0.1,0.1-0.1,0.1-0.2c0-0.1,0-0.2,0-0.3v-2.1c0-0.1,0-0.2,0-0.3c0-0.1-0.1-0.2-0.1-0.2c-0.1-0.1-0.2-0.1-0.3-0.1
				c-0.1,0-0.2,0-0.3,0.1c-0.1,0.1-0.1,0.1-0.1,0.2c0,0.1,0,0.2,0,0.3v2.1c0,0.1,0,0.2,0,0.3c0,0.1,0.1,0.2,0.1,0.2
				C207.8,363.9,207.9,363.9,208,363.9z M207.8,359.7l0.3-1.1h0.8l-0.7,1.1H207.8z"/>
			<path d="M209.6,364.4l0.9-2.4l-0.9-2.1h0.8l0.6,1.4l0.5-1.4h0.7l-0.9,2.2l0.9,2.2h-0.8l-0.6-1.5l-0.5,1.5H209.6z"/>
			<path d="M212.7,364.4V360h0.8v4.5H212.7z"/>
			<path d="M214.2,364.4V360h1.1c0.4,0,0.6,0,0.8,0.1c0.2,0.1,0.3,0.3,0.4,0.5c0.1,0.2,0.1,0.5,0.1,0.8v1.6c0,0.3,0,0.6-0.1,0.8
				c-0.1,0.2-0.2,0.4-0.4,0.5c-0.2,0.1-0.5,0.2-0.8,0.2H214.2z M215,363.9h0.2c0.2,0,0.3,0,0.4-0.1c0.1-0.1,0.1-0.2,0.1-0.3
				c0-0.1,0-0.3,0-0.5v-1.7c0-0.2,0-0.3,0-0.4c0-0.1-0.1-0.2-0.2-0.2c-0.1-0.1-0.2-0.1-0.4-0.1H215V363.9z"/>
			<path d="M218.4,364.5c-0.3,0-0.6-0.1-0.8-0.2c-0.2-0.1-0.3-0.3-0.4-0.5c-0.1-0.2-0.1-0.5-0.1-0.8v-1.7c0-0.3,0-0.6,0.1-0.8
				c0.1-0.2,0.2-0.4,0.4-0.5c0.2-0.1,0.4-0.2,0.8-0.2c0.3,0,0.6,0.1,0.8,0.2c0.2,0.1,0.3,0.3,0.4,0.5c0.1,0.2,0.1,0.5,0.1,0.8v1.7
				c0,0.3,0,0.6-0.1,0.8c-0.1,0.2-0.2,0.4-0.4,0.5C219,364.4,218.8,364.5,218.4,364.5z M218.4,363.9c0.1,0,0.2,0,0.3-0.1
				c0.1-0.1,0.1-0.1,0.1-0.2c0-0.1,0-0.2,0-0.3v-2.1c0-0.1,0-0.2,0-0.3c0-0.1-0.1-0.2-0.1-0.2c-0.1-0.1-0.2-0.1-0.3-0.1
				c-0.1,0-0.2,0-0.3,0.1c-0.1,0.1-0.1,0.1-0.1,0.2c0,0.1,0,0.2,0,0.3v2.1c0,0.1,0,0.2,0,0.3c0,0.1,0.1,0.2,0.1,0.2
				C218.2,363.9,218.3,363.9,218.4,363.9z"/>
			<path d="M221.7,364.4V360h1.1c0.4,0,0.6,0,0.8,0.1c0.2,0.1,0.3,0.3,0.4,0.5c0.1,0.2,0.1,0.5,0.1,0.8v1.6c0,0.3,0,0.6-0.1,0.8
				c-0.1,0.2-0.2,0.4-0.4,0.5c-0.2,0.1-0.5,0.2-0.8,0.2H221.7z M222.5,363.9h0.2c0.2,0,0.3,0,0.4-0.1c0.1-0.1,0.1-0.2,0.1-0.3
				c0-0.1,0-0.3,0-0.5v-1.7c0-0.2,0-0.3,0-0.4c0-0.1-0.1-0.2-0.2-0.2c-0.1-0.1-0.2-0.1-0.4-0.1h-0.2V363.9z"/>
			<path d="M224.7,364.4V360h1.9v0.6h-1.1v1.3h0.8v0.6h-0.8v1.5h1.1v0.6H224.7z"/>
			<path d="M228.2,364.4l0.9-4.5h0.9l0.9,4.5h-0.8l-0.2-1h-0.8l-0.2,1H228.2z M229.2,362.9h0.6l-0.3-1.9L229.2,362.9z"/>
			<path d="M231.1,364.4v-0.5l1.2-3.4h-1.1V360h2v0.4l-1.2,3.5h1.2v0.6H231.1z"/>
			<path d="M234.9,364.5c-0.3,0-0.6-0.1-0.8-0.2c-0.2-0.1-0.3-0.3-0.4-0.5c-0.1-0.2-0.1-0.5-0.1-0.8v-3h0.8v3.1c0,0.1,0,0.3,0,0.4
				c0,0.1,0.1,0.2,0.1,0.3c0.1,0.1,0.2,0.1,0.3,0.1c0.1,0,0.2,0,0.3-0.1c0.1-0.1,0.1-0.2,0.1-0.3c0-0.1,0-0.3,0-0.4V360h0.8v3
				c0,0.3,0,0.6-0.1,0.8c-0.1,0.2-0.2,0.4-0.4,0.5C235.4,364.4,235.2,364.5,234.9,364.5z"/>
			<path d="M236.7,364.4V360h1.8v0.6h-1v1.3h0.8v0.6h-0.8v2H236.7z"/>
			<path d="M239,364.4V360h1.1c0.3,0,0.6,0,0.8,0.1c0.2,0.1,0.4,0.2,0.5,0.4c0.1,0.2,0.2,0.4,0.2,0.7c0,0.2,0,0.3,0,0.5
				c0,0.1-0.1,0.3-0.2,0.4c-0.1,0.1-0.2,0.2-0.3,0.2l0.6,2.2h-0.8l-0.5-2h-0.4v2H239z M239.8,361.9h0.3c0.2,0,0.3,0,0.4-0.1
				c0.1,0,0.2-0.1,0.2-0.2c0-0.1,0.1-0.2,0.1-0.4c0-0.2,0-0.4-0.1-0.5c-0.1-0.1-0.2-0.2-0.5-0.2h-0.3V361.9z"/>
			<path d="M242.1,364.4V360h1.9v0.6h-1.1v1.3h0.8v0.6h-0.8v1.5h1.1v0.6H242.1z"/>
		</g>
		<g class="st0">
			<path d="M212.1,371.3v-1.7l-0.9-2.8h0.8l0.6,1.8l0.5-1.8h0.7l-0.9,2.8v1.7H212.1z"/>
			<path d="M216.6,371.4c-0.3,0-0.5-0.1-0.7-0.2c-0.2-0.1-0.3-0.3-0.4-0.5c-0.1-0.2-0.1-0.4-0.2-0.7l0.7-0.1c0,0.2,0,0.3,0.1,0.5
				c0,0.1,0.1,0.2,0.2,0.3c0.1,0.1,0.2,0.1,0.3,0.1c0.1,0,0.2,0,0.3-0.1c0.1-0.1,0.1-0.2,0.1-0.3c0-0.2,0-0.4-0.1-0.5
				c-0.1-0.1-0.2-0.2-0.4-0.4l-0.6-0.5c-0.2-0.1-0.3-0.3-0.4-0.5c-0.1-0.2-0.1-0.4-0.1-0.6c0-0.4,0.1-0.6,0.3-0.8
				c0.2-0.2,0.5-0.3,0.8-0.3c0.2,0,0.4,0,0.5,0.1c0.1,0.1,0.3,0.2,0.3,0.3c0.1,0.1,0.1,0.2,0.2,0.4c0,0.1,0.1,0.3,0.1,0.5l-0.7,0.1
				c0-0.1,0-0.3,0-0.4c0-0.1-0.1-0.2-0.1-0.3c-0.1-0.1-0.1-0.1-0.3-0.1c-0.1,0-0.2,0-0.3,0.1c-0.1,0.1-0.1,0.2-0.1,0.3
				c0,0.2,0,0.3,0.1,0.4c0.1,0.1,0.2,0.2,0.3,0.3l0.6,0.5c0.2,0.2,0.3,0.3,0.5,0.5c0.1,0.2,0.2,0.5,0.2,0.8c0,0.2,0,0.4-0.1,0.6
				c-0.1,0.2-0.2,0.3-0.4,0.4C217,371.3,216.8,371.4,216.6,371.4z"/>
			<path d="M219.4,371.4c-0.3,0-0.6-0.1-0.8-0.2c-0.2-0.1-0.3-0.3-0.4-0.5c-0.1-0.2-0.1-0.5-0.1-0.8v-3h0.8v3.1c0,0.1,0,0.3,0,0.4
				s0.1,0.2,0.1,0.3c0.1,0.1,0.2,0.1,0.3,0.1c0.1,0,0.2,0,0.3-0.1c0.1-0.1,0.1-0.2,0.1-0.3s0-0.3,0-0.4v-3.1h0.8v3
				c0,0.3,0,0.6-0.1,0.8c-0.1,0.2-0.2,0.4-0.4,0.5C220,371.3,219.7,371.4,219.4,371.4z"/>
			<path d="M221.3,371.3v-4.5h0.8v3.9h1.1v0.6H221.3z"/>
			<path d="M223.6,371.3v-4.5h1.8v0.6h-1v1.3h0.8v0.6h-0.8v2H223.6z"/>
			<path d="M225.9,371.3v-4.5h0.8v4.5H225.9z"/>
			<path d="M227.8,371.3v-3.9h-0.7v-0.6h2.2v0.6h-0.7v3.9H227.8z"/>
			<path d="M230.9,371.4c-0.3,0-0.6-0.1-0.8-0.2c-0.2-0.1-0.3-0.3-0.4-0.5c-0.1-0.2-0.1-0.5-0.1-0.8v-1.7c0-0.3,0-0.6,0.1-0.8
				c0.1-0.2,0.2-0.4,0.4-0.5c0.2-0.1,0.4-0.2,0.8-0.2c0.3,0,0.6,0.1,0.8,0.2c0.2,0.1,0.3,0.3,0.4,0.5c0.1,0.2,0.1,0.5,0.1,0.8v1.7
				c0,0.3,0,0.6-0.1,0.8c-0.1,0.2-0.2,0.4-0.4,0.5C231.5,371.3,231.2,371.4,230.9,371.4z M230.9,370.8c0.1,0,0.2,0,0.3-0.1
				c0.1-0.1,0.1-0.1,0.1-0.2c0-0.1,0-0.2,0-0.3v-2.1c0-0.1,0-0.2,0-0.3c0-0.1-0.1-0.2-0.1-0.2c-0.1-0.1-0.2-0.1-0.3-0.1
				c-0.1,0-0.2,0-0.3,0.1c-0.1,0.1-0.1,0.1-0.1,0.2c0,0.1,0,0.2,0,0.3v2.1c0,0.1,0,0.2,0,0.3c0,0.1,0.1,0.2,0.1,0.2
				C230.7,370.7,230.8,370.8,230.9,370.8z"/>
			<path d="M233.9,371.4c-0.3,0-0.5-0.1-0.7-0.2c-0.2-0.1-0.3-0.3-0.4-0.5c-0.1-0.2-0.1-0.4-0.2-0.7l0.7-0.1c0,0.2,0,0.3,0.1,0.5
				c0,0.1,0.1,0.2,0.2,0.3c0.1,0.1,0.2,0.1,0.3,0.1c0.1,0,0.2,0,0.3-0.1c0.1-0.1,0.1-0.2,0.1-0.3c0-0.2,0-0.4-0.1-0.5
				c-0.1-0.1-0.2-0.2-0.4-0.4l-0.6-0.5c-0.2-0.1-0.3-0.3-0.4-0.5c-0.1-0.2-0.1-0.4-0.1-0.6c0-0.4,0.1-0.6,0.3-0.8
				c0.2-0.2,0.5-0.3,0.8-0.3c0.2,0,0.4,0,0.5,0.1c0.1,0.1,0.3,0.2,0.3,0.3c0.1,0.1,0.1,0.2,0.2,0.4c0,0.1,0.1,0.3,0.1,0.5l-0.7,0.1
				c0-0.1,0-0.3,0-0.4c0-0.1-0.1-0.2-0.1-0.3c-0.1-0.1-0.1-0.1-0.3-0.1c-0.1,0-0.2,0-0.3,0.1c-0.1,0.1-0.1,0.2-0.1,0.3
				c0,0.2,0,0.3,0.1,0.4c0.1,0.1,0.2,0.2,0.3,0.3l0.6,0.5c0.2,0.2,0.3,0.3,0.5,0.5c0.1,0.2,0.2,0.5,0.2,0.8c0,0.2,0,0.4-0.1,0.6
				c-0.1,0.2-0.2,0.3-0.4,0.4C234.3,371.3,234.1,371.4,233.9,371.4z"/>
		</g>
		<g id="g3276">
			
				<path id="path3230-2-9" sodipodi:cx="21.573027" sodipodi:cy="29.287827" sodipodi:rx="18.363815" sodipodi:ry="18.720394" sodipodi:type="arc" class="st1" d="
				M242.2,334.9c0,10.6-8.6,19.1-19.1,19.1c-10.6,0-19.1-8.6-19.1-19.1s8.6-19.1,19.1-19.1C233.6,315.8,242.2,324.4,242.2,334.9z"/>
			<g id="g4196" transform="translate(-290.43647,304.95931)">
				<g id="g4054">
					<text transform="matrix(0.2437 0 0 0.2437 504.791 23.9548)" class="st2 st3 st4">E</text>
					<text transform="matrix(0.2437 0 0 0.2437 510.7204 24.0062)" class="st2 st3 st4">-</text>
					<text transform="matrix(0.2437 0 0 0.2437 513.8869 23.9548)" class="st2 st3 st4">X</text>
				</g>
				<path id="path4062" inkscape:connector-curvature="0" sodipodi:nodetypes="ccccccccccccccccccccccc" class="st5" d="M519.7,43.2
					l0-1.3l6-3.6l-0.1-7.4l-6-3.4l0-1.4l-0.9,0v1.3l-5.2,3l-5.3-3.1l0-1.3l-0.9,0v1.3l-6,3.4l-0.1,7.6l6,3.5l0,1.2l0.9,0l0-1.3
					l5.2-3l5.3,3l0,1.3L519.7,43.2z"/>
				<path id="path4074" inkscape:connector-curvature="0" sodipodi:nodetypes="ccccccc" class="st6" d="M507.8,29.1l4.8,2.8l0,5.6
					l-4.9,2.9l-4.9-2.8l0-5.7L507.8,29.1z"/>
				<path id="path3266" inkscape:connector-curvature="0" sodipodi:nodetypes="ccccc" class="st7" d="M503.9,32.2l0.5,0.8l3.7-2.2
					l-0.4-0.8L503.9,32.2z"/>
				<path id="path4074-5" inkscape:connector-curvature="0" sodipodi:nodetypes="ccccccc" class="st6" d="M519.3,28.8l4.8,2.8l0,5.6
					l-4.9,2.9l-4.9-2.8l0-5.7L519.3,28.8z"/>
				<path id="path3266-0" inkscape:connector-curvature="0" sodipodi:nodetypes="ccccc" class="st7" d="M515.2,32.2l0.5,0.8l3.7-2.2
					l-0.4-0.8L515.2,32.2z"/>
				<path id="path4054" inkscape:connector-curvature="0" class="st7" d="M522.4,32.6l0.9,0l0,4.5l-3.9,2.3l-0.4-0.8l3.5-2
					L522.4,32.6z"/>
				<path id="path4054-2" inkscape:connector-curvature="0" sodipodi:nodetypes="ccccccc" class="st7" d="M511,32.6l1,0l0,4.5
					l-3.9,2.3l-0.5-0.8l3.5-2L511,32.6z"/>
				
					<path id="path4064" sodipodi:cx="500.03137" sodipodi:cy="28.692717" sodipodi:rx="1.3572516" sodipodi:ry="1.3241479" sodipodi:type="arc" class="st8" d="
					M503.7,31.6c0,0.8-0.6,1.4-1.4,1.4c-0.8,0-1.4-0.6-1.4-1.4c0-0.8,0.6-1.4,1.4-1.4C503.1,30.2,503.7,30.8,503.7,31.6z"/>
				
					<path id="path4064-8" sodipodi:cx="500.03137" sodipodi:cy="28.692717" sodipodi:rx="1.3572516" sodipodi:ry="1.3241479" sodipodi:type="arc" class="st8" d="
					M503.6,37.8c0,0.8-0.6,1.4-1.4,1.4c-0.8,0-1.4-0.6-1.4-1.4s0.6-1.4,1.4-1.4S503.6,37.1,503.6,37.8z"/>
				
					<path id="path4064-2" sodipodi:cx="500.03137" sodipodi:cy="28.692717" sodipodi:rx="1.3572516" sodipodi:ry="1.3241479" sodipodi:type="arc" class="st8" d="
					M514.9,38.1c0,0.8-0.6,1.4-1.4,1.4c-0.8,0-1.4-0.6-1.4-1.4s0.6-1.4,1.4-1.4C514.3,36.8,514.9,37.4,514.9,38.1z"/>
				
					<path id="path4064-0" sodipodi:cx="500.03137" sodipodi:cy="28.692717" sodipodi:rx="1.3572516" sodipodi:ry="1.3241479" sodipodi:type="arc" class="st8" d="
					M526.2,38c0,0.8-0.6,1.4-1.4,1.4s-1.4-0.6-1.4-1.4c0-0.8,0.6-1.4,1.4-1.4C525.6,36.6,526.2,37.2,526.2,38z"/>
			</g>
		</g>
	</g>
</g>
</svg>
